<svg width="88" height="296" viewBox="0 0 88 296" fill="none" xmlns="http://www.w3.org/2000/svg">
<mask id="mask0" mask-type="alpha" maskUnits="userSpaceOnUse" x="0" y="0" width="88" height="296">
<g opacity="0.1">
<path d="M43.7439 296C19.6235 296 0 276.376 0 252.256C0 228.136 19.6235 208.512 43.7439 208.512C67.8643 208.512 87.4878 228.136 87.4878 252.256C87.4878 276.376 67.8643 296 43.7439 296ZM43.7439 237.675C35.7038 237.675 29.1626 244.216 29.1626 252.256C29.1626 260.296 35.7038 266.837 43.7439 266.837C51.784 266.837 58.3252 260.296 58.3252 252.256C58.3252 244.216 51.784 237.675 43.7439 237.675Z" fill="#171A25"/>
<path d="M43.7439 179.35C27.7642 179.35 21.3514 160.807 18.6116 152.889C15.1996 143.024 11.8954 129.594 8.7896 112.974C3.34349 83.8308 0 53.0103 0 43.7439C0 19.6235 19.6235 0 43.7439 0C67.8643 0 87.4878 19.6235 87.4878 43.7439C87.4878 53.0103 84.1442 83.8308 78.6981 112.974C75.5923 129.594 72.2882 143.024 68.8762 152.889C66.1364 160.807 59.725 179.35 43.7439 179.35ZM43.7439 29.1626C35.7038 29.1626 29.1626 35.7038 29.1626 43.7439C29.1626 49.3096 31.5248 73.4358 36.0377 99.7025C38.8621 116.139 41.51 127.605 43.7439 135.549C45.9763 127.604 48.6257 116.139 51.4501 99.7025C55.963 73.4358 58.3252 49.3096 58.3252 43.7439C58.3252 35.7038 51.784 29.1626 43.7439 29.1626Z" fill="#171A25"/>
</g>
</mask>
<g mask="url(#mask0)">
<g filter="url(#filter0_d)">
<rect x="-11" y="36" width="711" height="227" rx="4" fill="#00233D"/>
</g>
</g>
<defs>
<filter id="filter0_d" x="-47" y="24" width="783" height="299" filterUnits="userSpaceOnUse" color-interpolation-filters="sRGB">
<feFlood flood-opacity="0" result="BackgroundImageFix"/>
<feColorMatrix in="SourceAlpha" type="matrix" values="0 0 0 0 0 0 0 0 0 0 0 0 0 0 0 0 0 0 127 0"/>
<feOffset dy="24"/>
<feGaussianBlur stdDeviation="18"/>
<feColorMatrix type="matrix" values="0 0 0 0 0.0901961 0 0 0 0 0.164706 0 0 0 0 0.247059 0 0 0 0.08 0"/>
<feBlend mode="normal" in2="BackgroundImageFix" result="effect1_dropShadow"/>
<feBlend mode="normal" in="SourceGraphic" in2="effect1_dropShadow" result="shape"/>
</filter>
</defs>
</svg>
