<svg width="32" height="108" viewBox="0 0 32 108" fill="none" xmlns="http://www.w3.org/2000/svg">
<path d="M15.9606 107C7.71221 107 1 100.288 1 92.0393C1 83.7909 7.71221 77.0787 15.9606 77.0787C24.209 77.0787 30.9212 83.7909 30.9212 92.0393C30.9212 100.288 24.209 107 15.9606 107ZM15.9606 85.7191C12.4748 85.7191 9.6404 88.5535 9.6404 92.0393C9.6404 95.5252 12.4748 98.3595 15.9606 98.3595C19.4464 98.3595 22.2808 95.5252 22.2808 92.0393C22.2808 88.5535 19.4464 85.7191 15.9606 85.7191Z" stroke="url(#paint0_linear)" stroke-width="2"/>
<path d="M12.1633 36.5473L12.1633 36.5473C13.1981 42.569 14.1712 46.7879 14.9979 49.7278L15.961 53.1526L16.9233 49.7276C17.7494 46.7874 18.7231 42.5691 19.7579 36.5473L19.7579 36.5473C21.4062 26.9536 22.2808 18.0809 22.2808 15.9606C22.2808 12.4748 19.4464 9.6404 15.9606 9.6404C12.4748 9.6404 9.6404 12.4748 9.6404 15.9606C9.6404 18.0809 10.515 26.9536 12.1633 36.5473ZM15.9606 64.4385C13.4979 64.4385 11.7213 63.0298 10.383 61.1205C9.0354 59.198 8.23929 56.9121 7.73573 55.4569C6.51375 51.9235 5.31894 47.0778 4.19 41.0367C2.2062 30.4208 1 19.2479 1 15.9606C1 7.71221 7.71221 1 15.9606 1C24.209 1 30.9212 7.71221 30.9212 15.9606C30.9212 19.2479 29.715 30.4208 27.7312 41.0367C26.6022 47.0779 25.4074 51.9237 24.1854 55.457C23.6818 56.9123 22.8859 59.1981 21.5384 61.1205C20.2002 63.0298 18.4235 64.4385 15.9606 64.4385Z" stroke="url(#paint1_linear)" stroke-width="2"/>
<defs>
<linearGradient id="paint0_linear" x1="0" y1="108" x2="34.6819" y2="104.649" gradientUnits="userSpaceOnUse">
<stop stop-color="#1E7AE6"/>
<stop offset="1" stop-color="#2FA5F1"/>
</linearGradient>
<linearGradient id="paint1_linear" x1="0" y1="65.4385" x2="34.9281" y2="63.7921" gradientUnits="userSpaceOnUse">
<stop stop-color="#1E7AE6"/>
<stop offset="1" stop-color="#2FA5F1"/>
</linearGradient>
</defs>
</svg>
