<svg width="100" height="100" viewBox="0 0 100 100" fill="none" xmlns="http://www.w3.org/2000/svg">
<circle cx="50" cy="50" r="50" fill="#F5E2E5"/>
<path d="M44.2744 54.1826H39.7873C37.9651 54.1826 36.4879 55.6598 36.4879 57.482V57.482C36.4879 59.3041 37.9651 60.7813 39.7873 60.7813H41.5689C43.3546 60.7813 44.8023 62.2289 44.8023 64.0147V64.0147C44.8023 65.8004 43.3546 67.248 41.5689 67.248H36.4879" stroke="#D55267" stroke-width="2"/>
<path d="M56.8855 57.5563C57.0888 58.6 57.1953 59.6783 57.1953 60.7815C57.1953 70.0437 49.6868 77.5523 40.4245 77.5523C31.1622 77.5523 23.6537 70.0437 23.6537 60.7815C23.6537 51.5192 31.1622 44.0106 40.4245 44.0106C41.5277 44.0106 42.606 44.1171 43.6497 44.3204" stroke="#D55267" stroke-width="2"/>
<path d="M40.5591 50.7515V54.1828" stroke="#D55267" stroke-width="2"/>
<path d="M40.5591 67.1161V70.5474" stroke="#D55267" stroke-width="2"/>
<circle cx="59.5852" cy="41.6146" r="16.7708" stroke="#D55267" stroke-width="2"/>
<path d="M63.4228 35.0162H58.9357C57.1135 35.0162 55.6364 36.4934 55.6364 38.3156V38.3156C55.6364 40.1378 57.1135 41.6149 58.9357 41.6149H60.7173C62.5031 41.6149 63.9507 43.0626 63.9507 44.8483V44.8483C63.9507 46.634 62.5031 48.0817 60.7173 48.0817H55.6364" stroke="#D55267" stroke-width="2"/>
<path d="M59.7075 31.5851V35.0164" stroke="#D55267" stroke-width="2"/>
<path d="M59.7075 47.9496V51.3809" stroke="#D55267" stroke-width="2"/>
</svg>
