<svg width="100" height="100" viewBox="0 0 100 100" fill="none" xmlns="http://www.w3.org/2000/svg">
<circle cx="50" cy="50" r="50" fill="#ECF3FC"/>
<path d="M61.5649 25.0356C62.8025 25.5904 63.9916 26.2342 65.1239 26.959C72.7376 31.8323 77.7843 40.3641 77.7843 50.0746C77.7843 65.2212 65.5056 77.5 50.359 77.5C35.2123 77.5 22.9336 65.2212 22.9336 50.0746C22.9336 40.3641 27.9803 31.8323 35.594 26.959C36.7506 26.2186 37.9665 25.5628 39.2329 25" stroke="#3692FE" stroke-width="2" stroke-linecap="round" stroke-linejoin="round"/>
<mask id="path-3-inside-1" fill="white">
<path fill-rule="evenodd" clip-rule="evenodd" d="M40.2864 38.9567L56.0622 38.88C59.0262 38.8656 61.4367 41.2644 61.4367 44.2284C61.4367 47.1823 59.0421 49.5769 56.0882 49.5769H46.4069"/>
</mask>
<path d="M40.2767 36.9567C39.1721 36.9621 38.281 37.8619 38.2864 38.9664C38.2918 40.071 39.1915 40.9621 40.2961 40.9567L40.2767 36.9567ZM46.4069 47.5769C45.3023 47.5769 44.4069 48.4724 44.4069 49.5769C44.4069 50.6815 45.3023 51.5769 46.4069 51.5769V47.5769ZM40.2961 40.9567L56.0719 40.88L56.0525 36.88L40.2767 36.9567L40.2961 40.9567ZM56.0882 47.5769H46.4069V51.5769H56.0882V47.5769ZM59.4367 44.2284C59.4367 46.0778 57.9375 47.5769 56.0882 47.5769V51.5769C60.1467 51.5769 63.4367 48.2869 63.4367 44.2284H59.4367ZM56.0719 40.88C57.9276 40.871 59.4367 42.3728 59.4367 44.2284H63.4367C63.4367 40.156 60.1248 36.8602 56.0525 36.88L56.0719 40.88Z" fill="#3692FE" mask="url(#path-3-inside-1)"/>
<mask id="path-5-inside-2" fill="white">
<path fill-rule="evenodd" clip-rule="evenodd" d="M46.3853 47.9172H55.9081C58.957 47.9172 61.4285 50.3888 61.4285 53.4376C61.4285 56.4712 58.9807 58.9364 55.9472 58.9579L40 59.0708"/>
</mask>
<path d="M46.3853 45.9172C45.2807 45.9172 44.3853 46.8127 44.3853 47.9172C44.3853 49.0218 45.2807 49.9172 46.3853 49.9172V45.9172ZM39.9858 57.0708C38.8813 57.0786 37.9922 57.9804 38.0001 59.0849C38.0079 60.1895 38.9096 61.0785 40.0142 61.0707L39.9858 57.0708ZM46.3853 49.9172H55.9081V45.9172H46.3853V49.9172ZM55.9331 56.9579L39.9858 57.0708L40.0142 61.0707L55.9614 60.9578L55.9331 56.9579ZM59.4285 53.4376C59.4285 55.3722 57.8676 56.9442 55.9331 56.9579L55.9614 60.9578C60.0939 60.9286 63.4285 57.5703 63.4285 53.4376H59.4285ZM55.9081 49.9172C57.8524 49.9172 59.4285 51.4934 59.4285 53.4376H63.4285C63.4285 49.2842 60.0615 45.9172 55.9081 45.9172V49.9172Z" fill="#3692FE" mask="url(#path-5-inside-2)"/>
<path d="M45.9736 35V62.7796" stroke="#3692FE" stroke-width="2"/>
<path d="M55.8116 57.3801C55.8116 57.3801 55.8116 59.2068 55.8116 60.0799C55.8116 60.9529 55.8116 62.7797 55.8116 62.7797" stroke="#3692FE" stroke-width="2"/>
<path d="M55.8116 35C55.8116 35 55.8116 36.412 55.8116 37.0869C55.8116 37.7617 55.8116 39.1738 55.8116 39.1738" stroke="#3692FE" stroke-width="2"/>
<path d="M68.4558 29.7015H77.0752C78.3735 29.7015 79.426 28.649 79.426 27.3507V27.3507C79.426 26.0525 78.3735 25 77.0752 25H23.7917C22.4934 25 21.4409 26.0525 21.4409 27.3507V27.3507C21.4409 28.649 22.4934 29.7015 23.7917 29.7015H32.0193" stroke="#3692FE" stroke-width="2"/>
</svg>
