<svg width="100" height="100" viewBox="0 0 100 100" fill="none" xmlns="http://www.w3.org/2000/svg">
<circle cx="50" cy="50" r="50" fill="#F9EACD"/>
<path d="M28.6174 78.0751L28.8882 67.2938L39.1179 67.6229" stroke="#C8932E" stroke-width="2" stroke-miterlimit="10" stroke-linecap="round" stroke-linejoin="round"/>
<path d="M74.4409 21.7321L74.1067 31.7707L64.8818 31.5496" stroke="#C8932E" stroke-width="2" stroke-miterlimit="10" stroke-linecap="round" stroke-linejoin="round"/>
<path d="M73.3268 30.7861C68.0516 24.4559 60.0333 20.2357 50.96 20.2357C34.9234 20.2357 22.052 33.3182 22.052 49.3547" stroke="#C8932E" stroke-width="2" stroke-miterlimit="10" stroke-linecap="round" stroke-linejoin="round"/>
<path d="M30.0728 69.1897C35.3479 74.6759 42.7332 78.263 50.9625 78.263C66.999 78.263 79.8705 65.3915 79.8705 49.355" stroke="#C8932E" stroke-width="2" stroke-miterlimit="10" stroke-linecap="round" stroke-linejoin="round"/>
<mask id="path-6-inside-1" fill="white">
<path fill-rule="evenodd" clip-rule="evenodd" d="M39.8394 38.9567L55.6152 38.88C58.5792 38.8656 60.9897 41.2644 60.9897 44.2284C60.9897 47.1823 58.5951 49.5769 55.6412 49.5769H45.9599"/>
</mask>
<path d="M39.8296 36.9567C38.7251 36.9621 37.834 37.8619 37.8394 38.9664C37.8447 40.071 38.7445 40.9621 39.8491 40.9567L39.8296 36.9567ZM45.9599 47.5769C44.8553 47.5769 43.9599 48.4724 43.9599 49.5769C43.9599 50.6815 44.8553 51.5769 45.9599 51.5769V47.5769ZM39.8491 40.9567L55.6249 40.88L55.6054 36.88L39.8296 36.9567L39.8491 40.9567ZM55.6412 47.5769H45.9599V51.5769H55.6412V47.5769ZM58.9897 44.2284C58.9897 46.0778 57.4905 47.5769 55.6412 47.5769V51.5769C59.6996 51.5769 62.9897 48.2869 62.9897 44.2284H58.9897ZM55.6249 40.88C57.4806 40.871 58.9897 42.3728 58.9897 44.2284H62.9897C62.9897 40.156 59.6778 36.8602 55.6054 36.88L55.6249 40.88Z" fill="#C8932E" mask="url(#path-6-inside-1)"/>
<mask id="path-8-inside-2" fill="white">
<path fill-rule="evenodd" clip-rule="evenodd" d="M45.9382 47.9172H55.4611C58.51 47.9172 60.9815 50.3888 60.9815 53.4376C60.9815 56.4712 58.5337 58.9364 55.5002 58.9579L39.553 59.0708"/>
</mask>
<path d="M45.9382 45.9172C44.8337 45.9172 43.9382 46.8127 43.9382 47.9172C43.9382 49.0218 44.8337 49.9172 45.9382 49.9172V45.9172ZM39.5388 57.0708C38.4343 57.0786 37.5452 57.9804 37.553 59.0849C37.5608 60.1895 38.4626 61.0785 39.5671 61.0707L39.5388 57.0708ZM45.9382 49.9172H55.4611V45.9172H45.9382V49.9172ZM55.486 56.9579L39.5388 57.0708L39.5671 61.0707L55.5144 60.9578L55.486 56.9579ZM58.9815 53.4376C58.9815 55.3722 57.4205 56.9442 55.486 56.9579L55.5144 60.9578C59.6469 60.9286 62.9815 57.5703 62.9815 53.4376H58.9815ZM55.4611 49.9172C57.4054 49.9172 58.9815 51.4934 58.9815 53.4376H62.9815C62.9815 49.2842 59.6145 45.9172 55.4611 45.9172V49.9172Z" fill="#C8932E" mask="url(#path-8-inside-2)"/>
<path d="M45.5309 35V62.7796" stroke="#C8932E" stroke-width="2"/>
<path d="M55.3647 57.3801C55.3647 57.3801 55.3647 59.2068 55.3647 60.0799C55.3647 60.9529 55.3647 62.7797 55.3647 62.7797" stroke="#C8932E" stroke-width="2"/>
<path d="M55.3647 35C55.3647 35 55.3647 36.412 55.3647 37.0869C55.3647 37.7617 55.3647 39.1738 55.3647 39.1738" stroke="#C8932E" stroke-width="2"/>
</svg>
