<svg width="100" height="100" viewBox="0 0 100 100" fill="none" xmlns="http://www.w3.org/2000/svg">
<circle cx="50" cy="50" r="50" fill="#E2EAF4"/>
<path d="M37.7982 67.3256L41.025 70.545C44.396 69.7368 53.9834 65.2816 65.3643 53.927C76.7452 42.5723 77.012 29.4285 75.7228 24.276C70.5584 22.9898 57.3843 23.256 46.0034 34.6107C34.6225 45.9654 30.1571 55.5306 29.347 58.8939L32.4202 61.96M32.1609 52.0432L37.0011 56.8722M43.0513 62.9086L47.2865 67.134M61.8072 24.8796C62.099 26.3781 63.4301 30.1206 66.4196 33.1033C69.4091 36.0859 73.0607 37.3145 74.5127 37.556M32.447 51.7577L24.6321 51.9815C23.8582 52.0037 23.4551 51.0708 24.0025 50.5246L25.1201 49.4095C28.4132 46.1241 32.841 44.2195 37.4961 44.0862M47.5727 66.8485L47.8318 75.4205C47.8544 76.1684 48.7618 76.5275 49.2921 75.9984L50.2198 75.0729C53.6908 71.6099 55.5749 66.8709 55.4269 61.9757M61.8072 47.8177C59.134 50.4847 54.7999 50.4847 52.1267 47.8177C49.4536 45.1507 49.4536 40.8266 52.1267 38.1596C54.7999 35.4926 59.134 35.4926 61.8072 38.1596C64.4803 40.8266 64.4803 45.1507 61.8072 47.8177ZM42.7385 63.084C37.056 68.3008 28.6403 75.0906 26.6292 73.0841C24.6022 71.0618 31.6177 62.6332 36.9227 57.0233C38.4068 55.454 40.5301 54.675 42.6873 54.8273C43.8962 54.9127 44.8675 55.8559 44.9871 57.0591C45.2109 59.3112 44.4078 61.5516 42.7385 63.084Z" stroke="#4373A8" stroke-width="2"/>
</svg>
