<svg width="100" height="100" viewBox="0 0 100 100" fill="none" xmlns="http://www.w3.org/2000/svg">
<circle cx="50" cy="50" r="50" fill="#ECE8FB"/>
<path d="M39.249 58.3119H38.8733L38.5905 58.5594L28.0563 67.7768V59.3119V58.3119H27.0563H24.507C21.7455 58.3119 19.507 56.0734 19.507 53.3119V29.75C19.507 26.9886 21.7455 24.75 24.507 24.75H60.2616C63.023 24.75 65.2616 26.9886 65.2616 29.75V53.3119C65.2616 56.0734 63.023 58.3119 60.2616 58.3119H39.249Z" stroke="#8564E4" stroke-width="2"/>
<path d="M65.7519 36.073H78.7466C80.9557 36.073 82.7466 37.8639 82.7466 40.073V64.7174C82.7466 66.9265 80.9557 68.7174 78.7466 68.7174H74.1972V75.2764C74.1972 76.1292 73.1983 76.5907 72.549 76.0379L63.9496 68.7174H46.6922C44.4831 68.7174 42.6922 66.9266 42.6922 64.7174V58.5496" stroke="#8564E4" stroke-width="2"/>
<path d="M37.191 36.8596C37.191 34.1757 39.4615 32 42.2623 32C45.063 32 47.3335 34.1757 47.3335 36.8596C47.3335 39.2173 45.5813 41.1829 43.2566 41.6257C42.7141 41.7291 42.2623 42.1668 42.2623 42.7191V45.6067" stroke="#8564E4" stroke-width="2" stroke-linecap="round" stroke-linejoin="round"/>
<ellipse cx="42.3174" cy="50.4337" rx="1.29437" ry="1.30237" fill="#8564E4"/>
</svg>
