<svg width="100" height="100" viewBox="0 0 100 100" fill="none" xmlns="http://www.w3.org/2000/svg">
<circle cx="50" cy="50" r="50" fill="#FAE5CC"/>
<path d="M27.9652 28.8716L27.9652 60.5487C27.9652 65.4163 35.2921 69.3623 44.3303 69.3623C45.6237 69.3623 46.8821 69.2814 48.089 69.1287M60.6954 28.8716V56.1566" stroke="#CD6A32" stroke-width="2"/>
<path d="M27.9592 49.3928C29.3713 53.2159 36.0532 56.1111 44.0831 56.1111C52.1131 56.1111 59.3054 53.2159 60.7175 49.3928" stroke="#CD6A32" stroke-width="2" stroke-linecap="round" stroke-linejoin="round"/>
<path d="M27.9592 42.6748C29.3713 46.4979 36.0532 49.3931 44.0831 49.3931C52.1131 49.3931 59.3054 46.4979 60.7175 42.6748" stroke="#CD6A32" stroke-width="2" stroke-linecap="round" stroke-linejoin="round"/>
<path d="M27.9462 36.0203C29.2947 39.6151 36.0707 42.7323 43.7392 42.7323C51.4077 42.7323 59.3683 40.0099 60.7168 36.4151" stroke="#CD6A32" stroke-width="2" stroke-linecap="round" stroke-linejoin="round"/>
<path d="M27.9592 56.1111C29.3713 59.9341 36.0532 62.8294 44.0831 62.8294C45.474 62.8294 46.8245 62.7425 48.1141 62.579" stroke="#CD6A32" stroke-width="2" stroke-linecap="round" stroke-linejoin="round"/>
<path d="M60.5148 28.9135C60.5148 30.8736 59.0134 32.8789 56.0706 34.453C53.17 36.0044 49.0941 36.9945 44.5373 36.9945C39.98 36.9945 35.8001 36.0042 32.7951 34.4469C29.7344 32.8608 28.1649 30.851 28.1649 28.9135C28.1649 26.9761 29.7344 24.9663 32.7951 23.3801C35.8001 21.8228 39.98 20.8325 44.5373 20.8325C49.0941 20.8325 53.17 21.8226 56.0706 23.3741C59.0134 24.9481 60.5148 26.9535 60.5148 28.9135Z" stroke="#CD6A32" stroke-width="2"/>
<path d="M47.9752 62.8687L47.9752 69.4261C47.9752 74.2937 55.3021 78.2397 64.3403 78.2397C73.3785 78.2397 80.4651 74.2937 80.4651 69.4261V63.6986" stroke="#CD6A32" stroke-width="2"/>
<path d="M80.2537 63.6581C80.2537 65.3524 78.8172 67.1694 75.8422 68.6224C72.9339 70.0427 68.846 70.9494 64.2761 70.9494C59.7063 70.9494 55.6183 70.0427 52.71 68.6224C49.735 67.1694 48.2986 65.3524 48.2986 63.6581C48.2986 61.9637 49.735 60.1467 52.71 58.6937C55.6183 57.2734 59.7063 56.3667 64.2761 56.3667C68.846 56.3667 72.9339 57.2734 75.8422 58.6937C78.8172 60.1467 80.2537 61.9637 80.2537 63.6581Z" stroke="#CD6A32" stroke-width="2"/>
</svg>
