<svg width="100" height="100" viewBox="0 0 100 100" fill="none" xmlns="http://www.w3.org/2000/svg">
<circle cx="50" cy="50" r="50" fill="#DEF4F4"/>
<path d="M61.6374 26.5813C65.1205 27.552 68.6269 27.6937 72.7518 27.7093V56.3599C72.7518 59.1954 72.2539 61.4527 71.3144 63.3935C70.3733 65.3376 68.9608 67.0229 67.0479 68.6752C65.127 70.3343 62.7284 71.938 59.8348 73.7307C58.6055 74.4923 57.2534 75.3079 55.8112 76.1778C54.0971 77.2118 52.2559 78.3225 50.3427 79.5102C48.4296 78.3225 46.5884 77.2118 44.8743 76.1779C43.4321 75.3079 42.0799 74.4923 40.8506 73.7307C37.9571 71.938 35.5584 70.3343 33.6375 68.6752C31.7246 67.0229 30.3121 65.3376 29.371 63.3935C28.4316 61.4527 27.9336 59.1954 27.9336 56.3599V27.7093C32.0585 27.6937 35.5649 27.552 39.048 26.5813C42.6508 25.5772 46.1669 23.7066 50.3427 20.2984C54.5186 23.7066 58.0347 25.5772 61.6374 26.5813Z" stroke="#2E9BAA" stroke-width="2"/>
<path d="M41.2349 50.0891L47.5574 56.0132L59.6277 44.7036" stroke="#2E9BAA" stroke-width="2" stroke-linecap="round" stroke-linejoin="round"/>
</svg>
