<svg width="692" height="447" viewBox="0 0 692 447" fill="none" xmlns="http://www.w3.org/2000/svg">
<path d="M690.797 77.3188C685.57 67.215 655.991 58.8362 639.387 76.6411C622.845 94.446 635.636 109.478 621.492 109.17C607.348 108.801 601.444 96.2326 585.332 103.934C573.156 109.787 579.552 125.805 584.287 145.088C589.022 164.372 548.496 150.633 533.368 169.732C518.24 188.83 563.44 222.037 552.493 234.544C541.486 247.05 518.486 216.554 509.077 235.899C499.669 255.244 537.611 288.883 527.034 305.086C516.518 321.289 486.016 300.28 478.206 324C470.458 347.719 480.42 409.512 512.337 416.782C563.993 428.549 617.064 383.945 617.31 363.799C617.556 343.653 597.139 348.52 596.832 336.198C596.401 319.625 632.991 317.592 638.71 295.598C644.368 273.665 619.77 273.973 622.906 258.571C626.042 243.169 658.512 243.231 664.17 222.099C669.766 200.967 638.403 204.972 645.352 186.181C652.301 167.391 680.282 176.385 681.696 156.917C683.172 136.217 656.729 127.653 664.6 110.341C675.423 86.5601 696.885 89.086 690.797 77.3188Z" fill="#293450"/>
<path d="M676.774 76.7642C657.649 78.0579 640.676 108 635.203 122.847C629.73 137.695 626.409 153.282 622.289 168.561C606.915 225.919 580.595 279.58 554.336 332.809" stroke="#1B1733" stroke-width="2" stroke-miterlimit="10" stroke-linecap="round" stroke-linejoin="round"/>
<path d="M592.462 111.265C605.007 125.435 622.103 155.007 620.565 174.906" stroke="#1B1733" stroke-width="2" stroke-miterlimit="10" stroke-linecap="round" stroke-linejoin="round"/>
<path d="M614.725 124.449C619.522 132.15 625.61 142.562 624.995 157.903" stroke="#1B1733" stroke-width="2" stroke-miterlimit="10" stroke-linecap="round" stroke-linejoin="round"/>
<path d="M620.506 174.66C633.727 161.106 653.652 153.59 672.593 154.576" stroke="#1B1733" stroke-width="2" stroke-miterlimit="10" stroke-linecap="round" stroke-linejoin="round"/>
<path d="M603.654 224.994C616.691 216.061 632.803 211.687 648.607 212.796" stroke="#1B1733" stroke-width="2" stroke-miterlimit="10" stroke-linecap="round" stroke-linejoin="round"/>
<path d="M43.8038 75.5321C43.8038 75.5321 69.3246 116.502 92.078 138.619C128.176 173.736 171.346 197.517 171.346 197.517" stroke="#253B6D" stroke-width="2" stroke-miterlimit="10" stroke-linecap="round" stroke-linejoin="round"/>
<path d="M25.8449 52.3671C21.1097 55.9404 21.7246 61.2388 25.5374 66.3523C29.3501 71.4658 39.6814 79.4133 45.585 78.674C47.9218 73.1908 43.1867 61.0539 39.3739 55.9404C35.4997 50.8885 30.58 48.7938 25.8449 52.3671Z" fill="#253B6D"/>
<path d="M21.3562 86.807C20.4953 92.7214 24.7385 96.1715 31.011 97.034C37.3451 97.9582 50.1977 96.1099 53.8874 91.4276C51.6736 85.8828 39.7434 80.7077 33.4709 79.7836C27.1368 78.9211 22.2171 80.8925 21.3562 86.807Z" fill="#253B6D"/>
<path d="M35.9299 112.436C36.0529 118.412 40.7266 120.876 47.0606 120.753C53.4562 120.63 65.8783 117.056 68.7686 111.82C65.6938 106.706 53.1487 103.441 46.7531 103.564C40.4191 103.687 35.8069 106.46 35.9299 112.436Z" fill="#253B6D"/>
<path d="M53.1505 133.198C53.2735 139.174 57.9472 141.761 64.2813 141.638C70.6768 141.515 83.0989 137.818 85.9892 132.582C82.9145 127.468 70.3693 124.326 63.9738 124.449C57.6397 124.634 53.089 127.222 53.1505 133.198Z" fill="#253B6D"/>
<path d="M74.7367 153.713C74.8597 159.689 79.5334 162.154 85.8674 162.03C92.263 161.907 104.685 158.334 107.575 153.097C104.501 147.984 91.9555 144.718 85.5599 144.842C79.2259 144.965 74.6752 147.737 74.7367 153.713Z" fill="#253B6D"/>
<path d="M84.5719 90.873C78.7298 89.7025 75.2245 93.707 73.9331 99.9911C72.7032 106.275 73.6256 119.213 78.1148 123.156C83.7724 121.246 89.6145 109.602 90.8444 103.38C92.1358 97.0955 90.414 92.0436 84.5719 90.873Z" fill="#253B6D"/>
<path d="M66.6804 68.0157C60.8383 66.9067 57.3331 70.9113 56.1031 77.1954C54.8732 83.4795 55.9187 96.4173 60.4078 100.36C66.0655 98.3887 71.8461 86.7447 73.0145 80.4606C74.3059 74.1766 72.5225 69.1247 66.6804 68.0157Z" fill="#253B6D"/>
<path d="M540.44 418.076H643.753" stroke="#272E45" stroke-width="2" stroke-miterlimit="10" stroke-linecap="round" stroke-linejoin="round"/>
<path d="M122.88 404.152H521.25C533.979 404.152 544.311 393.802 544.311 381.049V72.3898C544.311 59.6369 533.979 49.2866 521.25 49.2866H122.573C109.843 49.2866 99.512 59.6369 99.512 72.3898L99.8194 381.049C99.8194 393.802 110.151 404.152 122.88 404.152Z" stroke="#253B6D" stroke-width="2" stroke-miterlimit="10" stroke-linecap="round" stroke-linejoin="round"/>
<path d="M482.697 154.638C519.683 154.638 549.666 124.6 549.666 87.5459C549.666 50.4922 519.683 20.4542 482.697 20.4542C445.711 20.4542 415.728 50.4922 415.728 87.5459C415.728 124.6 445.711 154.638 482.697 154.638Z" fill="#293450"/>
<path d="M487.927 120.198C475.751 122.355 463.39 117.734 455.642 108.061C455.457 107.815 455.396 107.445 455.519 107.137C455.642 106.829 455.888 106.583 456.195 106.521L466.403 104.673C466.895 104.611 467.387 104.919 467.449 105.412C467.51 105.905 467.203 106.398 466.711 106.46L458.04 108C465.419 116.255 476.55 120.198 487.558 118.227C488.05 118.165 488.542 118.473 488.603 118.966C488.788 119.644 488.48 120.075 487.927 120.198Z" fill="#1F263D"/>
<path d="M488.904 125.681C472.792 128.515 456.927 121.369 448.379 107.383C448.194 107.075 448.194 106.644 448.379 106.398L450.408 103.44C450.531 103.256 450.777 103.132 451.023 103.071L465.72 100.483C466.212 100.422 466.704 100.73 466.766 101.223C466.827 101.715 466.52 102.208 466.028 102.27L451.699 104.796L450.223 106.891C458.402 119.89 473.407 126.482 488.535 123.833C502.618 121.307 514.241 110.772 518.115 96.9716C518.115 96.91 518.176 96.8484 518.176 96.7867L521.005 91.6116C521.128 91.3652 521.374 91.1804 521.682 91.1188L546.895 86.6213C547.387 86.5597 547.879 86.8678 547.94 87.3606C548.002 87.8535 547.694 88.3464 547.202 88.408L522.42 92.7822L519.837 97.4644C515.84 112.004 503.663 123.032 488.904 125.681Z" fill="#1F263D"/>
<path d="M546.71 79.8444L524.264 83.8489C524.018 83.9105 523.773 83.8489 523.588 83.7257L519.406 80.8301C519.222 80.7069 519.099 80.4605 519.037 80.214C515.409 59.76 495.853 46.0829 475.498 49.7178C456.066 53.1679 442.598 71.1576 444.689 90.8107L448.133 93.2134L463.999 90.3794C464.491 90.3178 464.983 90.6259 465.044 91.1187C465.106 91.6116 464.798 92.1045 464.306 92.1661L448.071 95.0617C447.825 95.1233 447.579 95.0617 447.395 94.9385L443.336 92.1045C443.09 91.9813 442.967 91.7348 442.967 91.4268C440.507 70.6647 454.651 51.5661 475.191 47.8695C496.468 44.1114 516.824 58.2814 520.821 79.4747L524.387 81.9391L546.464 77.9961C546.956 77.9345 547.448 78.2426 547.51 78.7354C547.51 79.2899 547.202 79.7828 546.71 79.8444Z" fill="#1F263D"/>
<path d="M489.889 131.165C469.902 134.738 449.916 124.326 441.307 105.967C441.184 105.659 441.184 105.289 441.368 105.043L444.566 100.422C444.689 100.237 444.935 100.114 445.181 100.052L464.983 96.5405C465.475 96.4789 465.967 96.787 466.028 97.2798C466.09 97.7727 465.782 98.2656 465.29 98.3272L445.858 101.777L443.152 105.659C451.515 122.971 470.517 132.705 489.458 129.378C506.861 126.297 520.513 113.052 524.142 95.678C524.203 95.3083 524.511 95.0003 524.88 94.9387L545.604 91.2422C546.096 91.1806 546.588 91.4886 546.649 91.9815C546.711 92.4744 546.403 92.9672 545.911 93.0288L525.802 96.6021C521.928 114.407 507.845 127.961 489.889 131.165Z" fill="#1F263D"/>
<path d="M464.737 95.7398L445.243 99.1899C444.997 99.2515 444.751 99.1899 444.566 99.0667L438.048 94.5077C437.863 94.3844 437.679 94.138 437.679 93.8916C435.834 82.1859 438.54 70.3571 445.427 60.6845C452.315 51.012 462.523 44.4815 474.207 42.4484C485.83 40.3537 497.575 42.9413 507.353 49.595C516.824 56.0639 523.404 65.7365 525.925 76.9492L544.866 73.6224C545.358 73.5607 545.85 73.8688 545.911 74.3617C545.973 74.8545 545.665 75.3474 545.173 75.409L525.372 78.9207C524.88 78.9823 524.388 78.6743 524.326 78.1814C519.591 55.0166 497.76 40.1689 474.576 44.2967C451.7 48.3628 436.018 70.2955 439.462 93.2755L445.366 97.4033L464.491 94.0148C464.983 93.9532 465.475 94.2612 465.536 94.7541C465.598 95.247 465.229 95.6782 464.737 95.7398Z" fill="#1F263D"/>
<path d="M490.873 136.586C463.446 141.453 437.187 123.094 432.329 95.6163C427.471 68.1389 445.796 41.832 473.224 36.965C496.53 32.8372 519.837 45.6518 528.754 67.5228L532.014 69.8023L543.021 67.8309C543.513 67.7693 544.005 68.0773 544.067 68.5702C544.128 69.063 543.821 69.5559 543.329 69.6175L531.891 71.6506C531.645 71.7122 531.399 71.6506 531.214 71.5274L527.463 68.8782C527.34 68.755 527.217 68.6318 527.155 68.4469C518.607 47.2536 496.038 34.747 473.531 38.7516C447.088 43.4339 429.439 68.8166 434.112 95.3083C438.786 121.8 464.122 139.482 490.504 134.799C509.137 131.473 524.265 117.179 529.062 98.3887C529.123 98.0191 529.431 97.7726 529.8 97.711L544.128 95.1851C544.62 95.1235 545.112 95.4315 545.174 95.9244C545.235 96.4173 544.928 96.9101 544.436 96.9717L530.661 99.4361C525.618 118.658 509.998 133.198 490.873 136.586Z" fill="#1F263D"/>
<path d="M546.099 85.2664L521.563 89.6406C521.317 89.7022 521.071 89.6406 520.886 89.5174L514.306 84.9584C514.06 84.7735 513.937 84.5271 513.937 84.2807C513.876 83.2949 513.753 82.2476 513.568 81.2619C510.493 63.8266 493.828 52.1826 476.425 55.263C461.235 57.9738 450.166 71.0348 449.982 86.437L451.519 87.5459L462.896 85.5128C463.388 85.4512 463.88 85.7593 463.941 86.2522C464.003 86.745 463.695 87.2379 463.203 87.2995L451.396 89.3942C451.15 89.4558 450.904 89.3942 450.72 89.271L448.444 87.6691C448.198 87.4843 448.075 87.2379 448.075 86.9298C448.014 70.4187 459.759 56.3104 475.994 53.4764C494.381 50.2111 511.969 62.5328 515.229 80.9538C515.413 81.8779 515.536 82.8021 515.598 83.7262L521.501 87.854L545.669 83.5414C546.161 83.4798 546.653 83.7878 546.714 84.2807C546.96 84.6503 546.591 85.1432 546.099 85.2664Z" fill="#1F263D"/>
<path d="M494.438 153.713C458.033 160.182 423.165 135.785 416.708 99.313C410.251 62.8407 434.603 27.9087 471.009 21.4398C507.414 14.9709 542.282 39.3678 548.739 75.8401C555.196 112.312 530.844 147.183 494.438 153.713ZM471.869 26.2452C438.17 32.2213 415.539 64.6274 421.566 98.3889C427.531 132.15 459.878 154.822 493.577 148.785C527.277 142.809 549.908 110.403 543.881 76.641C537.916 42.8795 505.569 20.2692 471.869 26.2452Z" fill="#1F263D"/>
<path d="M494.438 153.713C458.033 160.182 423.165 135.785 416.708 99.313C410.251 62.8407 434.603 27.9087 471.009 21.4398C507.414 14.9709 542.282 39.3678 548.739 75.8401C555.196 112.312 530.844 147.183 494.438 153.713Z" stroke="#253B6D" stroke-width="2" stroke-miterlimit="10" stroke-linecap="round" stroke-linejoin="round"/>
<path d="M507.545 83.9109C504.84 82.0011 501.457 81.0769 497.952 81.6314V81.5698C502.81 80.4608 506.008 75.6554 505.086 70.7267C504.409 66.8453 502.195 63.6417 499.243 61.547C496.292 59.4523 492.479 58.5282 488.605 59.2059L483.808 60.0684V60.13H483.685L481.41 47.1306L475.813 48.1164L478.089 61.1158L471.017 62.3479L468.741 49.3485L463.145 50.3343L465.421 63.3337L449.801 66.106L450.846 71.8356L461.178 69.9874L468.311 110.341L460.87 111.635L460.44 118.843L475.199 116.194L477.351 128.269L482.947 127.283L480.795 115.208L487.559 113.976L489.712 126.051L495.308 125.065L493.155 112.99L496.292 112.436L498.936 111.881C508.16 110.218 514.371 101.408 512.711 92.1049C512.157 88.778 510.19 85.8208 507.545 83.9109ZM473.538 69.741L482.271 68.2007C486.022 67.523 489.589 70.049 490.265 73.8071C490.941 77.5652 488.42 81.1385 484.669 81.8162L475.936 83.3564L473.538 69.741ZM496.784 101.593C495.677 103.194 493.955 104.303 491.925 104.673L480.057 106.768L477.412 91.92L489.281 89.8253C493.401 89.086 497.276 91.8584 498.013 95.9246C498.382 98.0193 497.89 99.9908 496.784 101.593Z" fill="#1F263D"/>
<path d="M481.404 47.1306L483.68 60.13H483.803V60.0684L488.599 59.2058C492.474 58.5282 496.225 59.4523 499.238 61.547C502.252 63.6417 504.404 66.8453 505.08 70.7266C505.941 75.7169 502.805 80.4608 497.947 81.5698V81.6314C501.452 81.0769 504.834 82.001 507.54 83.9109C510.246 85.8208 512.214 88.778 512.829 92.2896C514.489 101.531 508.278 110.403 499.054 112.066L496.409 112.62L493.273 113.175L495.425 125.25L489.829 126.236L487.677 114.161L480.912 115.393L483.065 127.468L477.469 128.454L475.316 116.379L460.557 119.028L460.988 111.82L468.429 110.526L461.172 70.1106L450.841 71.9588L449.796 66.2292L465.416 63.4568L463.14 50.4574L468.736 49.4717L471.012 62.4711L478.084 61.2389L475.808 48.2395L481.404 47.1306ZM475.931 83.3564L484.664 81.8162C488.415 81.1385 490.936 77.5652 490.26 73.8071C489.583 70.049 486.017 67.523 482.265 68.2007L473.533 69.7409L475.931 83.3564ZM480.113 106.829L491.982 104.735C494.011 104.365 495.733 103.194 496.84 101.654C497.947 100.052 498.439 98.0809 498.07 95.9862C497.332 91.92 493.458 89.1476 489.337 89.8869L477.469 91.9816L480.113 106.829ZM481.158 45.96L475.562 46.9457C474.886 47.069 474.455 47.685 474.578 48.3627L476.669 60.1916L472.057 60.9925L469.966 49.1637C469.843 48.486 469.228 48.0547 468.552 48.1779L462.956 49.1637C462.279 49.2869 461.849 49.903 461.972 50.5806L464.063 62.4095L449.673 64.9971C448.996 65.1203 448.566 65.7364 448.689 66.414L449.734 72.1436C449.857 72.8213 450.472 73.2526 451.148 73.1294L460.25 71.5276L466.953 109.478L460.742 110.587C460.188 110.711 459.758 111.142 459.758 111.758L459.327 118.966C459.327 119.336 459.45 119.705 459.758 119.952C460.065 120.198 460.434 120.322 460.803 120.26L474.332 117.857L476.239 128.762C476.362 129.44 476.977 129.871 477.653 129.748L483.249 128.762C483.926 128.639 484.356 128.023 484.233 127.345L482.327 116.44L486.693 115.639L488.599 126.544C488.722 127.222 489.337 127.653 490.014 127.53L495.61 126.544C496.286 126.421 496.717 125.805 496.594 125.127L494.688 114.222L496.655 113.853H496.717L499.3 113.298C509.201 111.512 515.781 102.024 514.059 92.1048C513.382 88.4083 511.353 85.1431 508.278 82.9868C506.618 81.8162 504.711 81.0153 502.805 80.584C505.572 78.1813 507.048 74.4232 506.372 70.6034C505.634 66.5373 503.358 62.964 499.976 60.6228C496.594 58.2817 492.474 57.3576 488.415 58.0969L484.725 58.7746L482.634 47.069C482.511 46.2681 481.835 45.8368 481.158 45.96ZM474.947 70.7266L482.511 69.3713C485.586 68.8168 488.538 70.9115 489.091 73.9919C489.645 77.0723 487.554 80.0295 484.541 80.584L476.977 81.9394L474.947 70.7266ZM478.883 92.9673L489.522 91.0575C492.966 90.4414 496.225 92.7209 496.84 96.171C497.147 97.8344 496.778 99.4978 495.794 100.915C494.81 102.27 493.396 103.194 491.736 103.502L481.097 105.412L478.883 92.9673Z" fill="#293450"/>
<path d="M473.652 41.5246C474.329 41.4013 475.005 41.8326 475.128 42.5103L475.374 43.9889C475.497 44.6666 475.067 45.3443 474.39 45.4675L469.409 46.33C468.733 46.4532 468.056 46.022 467.933 45.3443L467.687 43.8657C467.564 43.188 467.995 42.5103 468.671 42.3871L473.652 41.5246ZM473.468 40.2924L468.487 41.1549C467.134 41.4013 466.211 42.6951 466.457 44.0505L466.703 45.5291C466.949 46.8845 468.241 47.8086 469.594 47.5622L474.575 46.6997C475.928 46.4532 476.85 45.1595 476.604 43.8041L476.358 42.3255C476.112 40.9701 474.821 40.0459 473.468 40.2924Z" fill="#293450"/>
<path d="M489.146 128.762C489.823 128.639 490.499 129.07 490.622 129.748L490.868 131.227C490.991 131.904 490.561 132.582 489.884 132.705L484.903 133.568C484.226 133.691 483.55 133.26 483.427 132.582L483.181 131.103C483.058 130.426 483.489 129.748 484.165 129.625L489.146 128.762ZM488.9 127.592L483.919 128.454C482.566 128.701 481.644 129.994 481.89 131.35L482.136 132.828C482.382 134.184 483.673 135.108 485.026 134.862L490.007 133.999C491.36 133.753 492.282 132.459 492.036 131.103L491.79 129.625C491.545 128.208 490.253 127.345 488.9 127.592Z" fill="#272E45"/>
<path d="M459.077 94.8775C459.753 94.7542 460.43 95.1855 460.553 95.8632L460.799 97.3418C460.922 98.0195 460.491 98.6972 459.754 98.8204L454.772 99.6829C454.096 99.8061 453.419 99.3749 453.296 98.6972L453.05 97.2186C452.927 96.5409 453.358 95.8632 454.034 95.74L459.077 94.8775ZM458.893 93.6453L453.911 94.5078C452.558 94.7542 451.636 96.048 451.882 97.4034L452.128 98.882C452.374 100.237 453.665 101.162 455.018 100.915L459.999 100.053C461.352 99.8062 462.275 98.5124 462.029 97.157L461.783 95.6784C461.537 94.323 460.245 93.3989 458.893 93.6453Z" fill="#272E45"/>
<path d="M458.276 90.2572C458.952 90.134 459.629 90.5653 459.752 91.243L459.998 92.7216C460.121 93.3993 459.69 94.077 458.952 94.2002L453.971 95.0627C453.295 95.1859 452.618 94.7547 452.495 94.077L452.249 92.5983C452.126 91.9206 452.557 91.243 453.233 91.1197L458.276 90.2572ZM458.03 89.025L453.049 89.8876C451.696 90.134 450.773 91.4278 451.019 92.7832L451.265 94.2618C451.511 95.6172 452.803 96.5413 454.156 96.2949L459.137 95.4323C460.49 95.1859 461.412 93.8921 461.166 92.5367L460.92 91.0581C460.674 89.7027 459.383 88.7786 458.03 89.025Z" fill="#272E45"/>
<path d="M538.527 73.5611C539.203 73.4378 539.88 73.8691 540.003 74.5468L540.249 76.0254C540.372 76.7031 539.941 77.3808 539.265 77.504L534.284 78.3665C533.607 78.4898 532.931 78.0585 532.808 77.3808L532.562 75.9022C532.439 75.2245 532.869 74.5468 533.546 74.4236L538.527 73.5611ZM538.281 72.3289L533.3 73.1914C531.947 73.4378 531.024 74.7316 531.27 76.087L531.516 77.5656C531.762 78.921 533.054 79.8452 534.406 79.5987L539.388 78.7362C540.741 78.4898 541.663 77.196 541.417 75.8406L541.171 74.362C540.925 73.0066 539.634 72.0824 538.281 72.3289Z" fill="#293450"/>
<path d="M459.998 99.8679C460.675 99.7447 461.351 100.176 461.474 100.854L461.72 102.332C461.843 103.01 461.413 103.688 460.675 103.811L455.693 104.673C455.017 104.797 454.341 104.365 454.218 103.688L453.972 102.209C453.849 101.531 454.279 100.854 454.956 100.73L459.998 99.8679ZM459.752 98.6974L454.771 99.5599C453.418 99.8063 452.496 101.1 452.742 102.455L452.988 103.934C453.234 105.289 454.525 106.214 455.878 105.967L460.859 105.105C462.212 104.858 463.134 103.564 462.888 102.209L462.642 100.73C462.396 99.3135 461.105 98.451 459.752 98.6974Z" fill="#272E45"/>
<path d="M531.145 84.0343C531.821 83.9111 532.498 84.3424 532.621 85.0201L533.605 90.7496C533.728 91.4273 533.297 92.105 532.621 92.2283L526.902 93.214C526.225 93.3372 525.549 92.9059 525.426 92.1666L524.442 86.4371C524.319 85.7594 524.749 85.0817 525.426 84.9585L531.145 84.0343ZM530.899 82.8638L525.18 83.8495C523.827 84.0959 522.904 85.3897 523.15 86.7451L524.134 92.4747C524.38 93.8301 525.672 94.7542 527.025 94.5078L532.744 93.522C534.097 93.2756 535.019 91.9818 534.773 90.6264L533.789 84.8968C533.543 83.4798 532.252 82.6173 530.899 82.8638Z" fill="#293450"/>
<path d="M488.655 143.302C488.717 143.979 488.225 144.595 487.548 144.657L482.26 144.842C481.583 144.842 481.03 144.287 481.03 143.61L481.091 142.316C481.091 141.638 481.706 141.084 482.383 141.084L487.179 140.899C487.856 140.837 488.471 141.392 488.594 142.069L488.655 143.302ZM493.882 143.733C493.206 143.856 492.529 143.425 492.468 142.747L492.222 141.453C492.099 140.776 492.529 140.098 493.206 139.975L497.88 138.804C498.556 138.619 499.232 138.989 499.478 139.667L499.847 140.899C500.032 141.577 499.663 142.254 499.048 142.439L493.882 143.733ZM477.217 143.363C477.155 144.041 476.541 144.534 475.864 144.472L470.637 143.61C469.96 143.486 469.53 142.809 469.714 142.131L470.022 140.899C470.206 140.221 470.883 139.79 471.559 139.913L476.294 140.714C476.971 140.776 477.463 141.453 477.401 142.131L477.217 143.363ZM505.075 140.283C504.46 140.591 503.722 140.283 503.476 139.605L502.984 138.435C502.738 137.818 503.045 137.018 503.66 136.771L507.965 134.676C508.58 134.368 509.379 134.553 509.687 135.169L510.302 136.278C510.671 136.894 510.425 137.634 509.81 137.942L505.075 140.283ZM465.963 141.084C465.779 141.761 465.041 142.069 464.426 141.885L459.445 139.913C458.83 139.667 458.522 138.927 458.83 138.311L459.383 137.141C459.691 136.525 460.429 136.217 461.044 136.525L465.533 138.25C466.209 138.496 466.517 139.235 466.332 139.852L465.963 141.084ZM515.344 134.553C514.791 134.984 513.991 134.8 513.622 134.245L512.884 133.198C512.516 132.643 512.638 131.842 513.192 131.411L517.005 128.454C517.558 128.023 518.358 128.084 518.788 128.577L519.649 129.563C520.079 130.056 520.018 130.857 519.526 131.288L515.344 134.553ZM455.386 136.525C455.078 137.141 454.279 137.326 453.726 136.956L449.236 134.06C448.683 133.691 448.56 132.89 448.99 132.335L449.79 131.288C450.22 130.734 451.02 130.61 451.573 130.98L455.632 133.629C456.247 133.999 456.431 134.8 456.124 135.354L455.386 136.525ZM524.2 126.914C523.708 127.407 522.97 127.468 522.478 126.975L521.555 126.051C521.063 125.558 521.063 124.757 521.494 124.265L524.63 120.63C525.061 120.075 525.86 120.014 526.414 120.383L527.459 121.123C528.012 121.554 528.135 122.293 527.705 122.848L524.2 126.914ZM445.977 129.933C445.547 130.425 444.747 130.487 444.255 130.056L440.504 126.298C440.012 125.805 440.073 125.004 440.565 124.573L441.549 123.71C442.041 123.279 442.902 123.279 443.333 123.772L446.715 127.16C447.207 127.653 447.268 128.454 446.838 128.947L445.977 129.933ZM531.333 117.611C530.964 118.227 530.226 118.35 529.611 117.981L528.504 117.303C527.951 116.933 527.766 116.132 528.074 115.516L530.411 111.327C530.718 110.711 531.518 110.464 532.133 110.711L533.301 111.265C533.916 111.573 534.162 112.313 533.855 112.929L531.333 117.611ZM438.106 121.554C437.552 121.985 436.814 121.862 436.384 121.307L433.432 116.872C433.063 116.255 433.247 115.516 433.862 115.208L434.969 114.592C435.584 114.222 436.384 114.469 436.691 115.023L439.336 119.028C439.705 119.582 439.643 120.383 439.09 120.815L438.106 121.554ZM536.437 107.014C536.191 107.692 535.515 108 534.838 107.753L533.67 107.261C533.055 107.014 532.686 106.275 532.932 105.597L534.347 100.977C534.531 100.299 535.207 99.8676 535.884 100.052L537.114 100.36C537.79 100.545 538.159 101.223 537.975 101.839L536.437 107.014ZM432.141 111.82C431.526 112.128 430.788 111.82 430.48 111.204L428.512 106.275C428.266 105.597 428.635 104.92 429.312 104.735L430.542 104.365C431.218 104.18 431.895 104.488 432.141 105.166L433.924 109.663C434.17 110.279 433.924 111.08 433.309 111.327L432.141 111.82ZM428.266 100.977C427.59 101.161 426.913 100.73 426.79 100.052C426.79 100.052 426.175 97.3416 425.929 95.3086C425.868 94.7541 425.868 94.7541 425.868 94.7541C425.806 94.138 426.298 93.5219 426.975 93.4603L428.266 93.3371C428.943 93.2755 429.558 93.7067 429.619 94.3228C429.619 94.3228 429.619 94.3228 429.681 94.8773C429.927 96.7256 430.48 99.2515 430.48 99.2515C430.603 99.9292 430.173 100.607 429.558 100.792L428.266 100.977ZM429.189 88.2236C429.189 88.9013 428.635 89.5173 427.959 89.5173L426.667 89.579C425.991 89.579 425.438 89.0861 425.438 88.3468L425.622 82.9868C425.683 82.3091 426.237 81.8163 426.975 81.8779L428.266 82.0011C428.943 82.0627 429.496 82.6788 429.435 83.3565L429.189 88.2236ZM533.609 67.5231C532.994 67.7695 532.194 67.4615 531.948 66.8454L529.919 62.4712C529.611 61.8551 529.857 61.0542 530.411 60.7461L531.518 60.13C532.133 59.822 532.871 60.0068 533.178 60.6229L535.453 65.4284C535.699 66.0445 535.453 66.7838 534.777 67.0302L533.609 67.5231ZM430.173 77.3188C430.05 77.9965 429.373 78.4278 428.697 78.3662L427.405 78.1814C426.729 78.0581 426.298 77.4421 426.421 76.7644L427.651 71.5892C427.836 70.9115 428.512 70.5419 429.189 70.7883L430.419 71.158C431.095 71.3428 431.464 72.0821 431.28 72.7598L430.173 77.3188ZM528.443 57.5425C527.889 57.9121 527.09 57.7889 526.66 57.1728L523.769 53.3531C523.339 52.7986 523.4 51.9977 523.954 51.5664L524.938 50.7039C525.43 50.2727 526.229 50.3343 526.66 50.8271L529.857 55.0781C530.226 55.6326 530.103 56.4335 529.55 56.8032L528.443 57.5425ZM433.37 66.8454C433.124 67.4615 432.325 67.7695 431.71 67.5231L430.542 67.0302C429.927 66.7838 429.619 66.0445 429.865 65.4284L432.141 60.6229C432.448 60.0068 433.186 59.7604 433.801 60.13L434.908 60.7461C435.523 61.0542 435.769 61.8551 435.4 62.4712L433.37 66.8454ZM521.371 48.8557C520.879 49.3485 520.079 49.3485 519.588 48.8557L515.959 45.7136C515.406 45.2824 515.344 44.4815 515.775 43.927L516.574 42.8796C517.005 42.3251 517.743 42.2635 518.296 42.6948L522.293 46.2065C522.785 46.6994 522.785 47.4387 522.293 47.9315L521.371 48.8557ZM438.598 57.1728C438.229 57.7273 437.429 57.9121 436.814 57.4809L435.769 56.8032C435.215 56.4335 435.031 55.6326 435.461 55.0781L438.659 50.8271C439.09 50.2727 439.889 50.2111 440.381 50.7039L441.365 51.5664C441.857 51.9977 441.98 52.7986 441.549 53.3531L438.598 57.1728ZM512.7 41.7091C512.331 42.2635 511.532 42.4484 510.917 42.0787L506.735 39.7376C506.12 39.4295 505.874 38.6286 506.181 38.0126L506.735 36.842C507.042 36.2259 507.78 35.9795 508.395 36.2875L513.007 38.9367C513.622 39.3063 513.745 40.0456 513.376 40.6617L512.7 41.7091ZM445.731 48.8557C445.239 49.3485 444.44 49.2869 443.948 48.8557L443.025 47.9315C442.533 47.4387 442.533 46.6378 443.025 46.2065L447.023 42.6948C447.576 42.2635 448.314 42.3251 448.744 42.8796L449.544 43.927C449.974 44.4815 449.851 45.2824 449.359 45.7136L445.731 48.8557ZM502.738 36.5339C502.492 37.15 501.754 37.5197 501.077 37.2732L496.527 35.7946C495.85 35.6098 495.481 34.9321 495.604 34.2544L495.912 33.0222C496.096 32.3446 496.773 31.9749 497.388 32.1597L502.492 33.7616C503.168 34.008 503.476 34.6857 503.23 35.3634L502.738 36.5339ZM454.341 42.0787C453.726 42.4484 452.988 42.2635 452.557 41.7091L451.881 40.6617C451.512 40.1072 451.696 39.3063 452.25 38.9367L456.862 36.2875C457.477 35.9795 458.215 36.2259 458.522 36.842L459.076 38.0126C459.383 38.6286 459.137 39.4295 458.522 39.7376L454.341 42.0787ZM491.976 33.5151C491.853 34.1928 491.176 34.6857 490.5 34.5625L485.703 34.0696C485.027 34.008 484.473 33.3919 484.473 32.7142L484.535 31.4204C484.535 30.7427 485.15 30.1883 485.826 30.2499L491.115 30.8043C491.791 30.9276 492.283 31.5436 492.16 32.2213L491.976 33.5151ZM464.18 37.2732C463.503 37.5197 462.765 37.15 462.519 36.5339L462.027 35.3634C461.782 34.7473 462.089 34.008 462.765 33.7616L467.87 32.1597C468.546 31.9749 469.222 32.3446 469.345 33.0222L469.653 34.2544C469.837 34.9321 469.407 35.6098 468.731 35.7946L464.18 37.2732ZM480.784 32.7758C480.784 33.4535 480.292 34.0696 479.554 34.1312L474.757 34.6241C474.081 34.7473 473.404 34.2544 473.281 33.5767L473.035 32.2829C472.912 31.6053 473.404 30.9892 474.081 30.8659L479.369 30.3115C480.046 30.2499 480.661 30.8043 480.661 31.482L480.784 32.7758Z" fill="#1F263D"/>
<path d="M475.377 44.0501C475.5 44.7278 475.069 45.4055 474.393 45.5287L469.412 46.3913C468.735 46.5145 468.059 46.0832 467.936 45.4055L467.69 43.9269C467.567 43.2492 467.997 42.5715 468.674 42.4483L473.655 41.5858C474.331 41.4626 475.008 41.8938 475.131 42.5715L475.377 44.0501Z" fill="#1F263D"/>
<path d="M490.876 131.288C490.999 131.966 490.568 132.643 489.892 132.767L484.911 133.629C484.234 133.752 483.558 133.321 483.435 132.643L483.189 131.165C483.066 130.487 483.496 129.809 484.173 129.686L489.154 128.824C489.83 128.7 490.507 129.132 490.63 129.809L490.876 131.288Z" fill="#1F263D"/>
<path d="M460.802 97.4034C460.925 98.0811 460.494 98.7588 459.818 98.882L454.837 99.7446C454.16 99.8678 453.484 99.4365 453.361 98.7588L453.115 97.2802C452.992 96.6025 453.422 95.9248 454.099 95.8016L459.08 94.9391C459.756 94.8159 460.433 95.2471 460.556 95.9248L460.802 97.4034Z" fill="#1F263D"/>
<path d="M460.002 92.7825C460.125 93.4602 459.694 94.1379 459.018 94.2611L454.037 95.1237C453.36 95.2469 452.684 94.8156 452.561 94.1379L452.315 92.6593C452.192 91.9816 452.622 91.304 453.299 91.1807L458.28 90.3182C458.957 90.195 459.633 90.6263 459.756 91.304L460.002 92.7825Z" fill="#1F263D"/>
<path d="M540.252 76.0864C540.375 76.7641 539.945 77.4418 539.268 77.565L534.287 78.4275C533.611 78.5507 532.934 78.1195 532.811 77.4418L532.565 75.9632C532.442 75.2855 532.873 74.6078 533.549 74.4846L538.53 73.6221C539.207 73.4988 539.883 73.9301 540.006 74.6078L540.252 76.0864Z" fill="#1F263D"/>
<path d="M461.723 102.394C461.846 103.071 461.416 103.749 460.739 103.872L455.758 104.735C455.082 104.858 454.405 104.427 454.282 103.749L454.036 102.27C453.913 101.593 454.344 100.915 455.02 100.792L460.001 99.9293C460.678 99.8061 461.354 100.237 461.477 100.915L461.723 102.394Z" fill="#1F263D"/>
<path d="M533.614 90.8729C533.737 91.5506 533.307 92.2283 532.631 92.3515L526.911 93.3373C526.235 93.4605 525.559 93.0292 525.436 92.3515L524.452 86.6219C524.329 85.9442 524.759 85.2665 525.436 85.1433L531.155 84.1576C531.831 84.0344 532.508 84.4656 532.631 85.1433L533.614 90.8729Z" fill="#1F263D"/>
<path d="M409.024 136.832C446.044 136.832 476.054 106.767 476.054 69.6791C476.054 32.5913 446.044 2.52576 409.024 2.52576C372.004 2.52576 341.994 32.5913 341.994 69.6791C341.994 106.767 372.004 136.832 409.024 136.832Z" stroke="#253B6D" stroke-width="2" stroke-miterlimit="10" stroke-linecap="round" stroke-linejoin="round"/>
<path d="M408.714 136.155C445.699 136.155 475.682 106.117 475.682 69.063C475.682 32.0092 445.699 1.97125 408.714 1.97125C371.728 1.97125 341.745 32.0092 341.745 69.063C341.745 106.117 371.728 136.155 408.714 136.155Z" fill="#293450"/>
<path d="M402.192 102.394C390.077 100.114 380.177 91.3657 376.302 79.5985C376.179 79.2904 376.241 78.9208 376.487 78.6743C376.671 78.4279 377.04 78.3047 377.348 78.3663L387.556 80.2761C388.048 80.3994 388.356 80.8306 388.294 81.3851C388.171 81.878 387.741 82.186 387.187 82.1244L378.578 80.461C382.514 90.8112 391.553 98.4507 402.5 100.545C402.992 100.669 403.299 101.1 403.238 101.654C403.176 102.147 402.684 102.455 402.192 102.394Z" fill="#1F263D"/>
<path d="M401.458 107.199C385.407 104.18 373.108 91.7964 370.033 75.7165C369.972 75.3469 370.095 74.9772 370.402 74.7924L373.354 72.7593C373.539 72.6361 373.785 72.5745 374.031 72.6361L388.667 75.4085C389.159 75.5317 389.466 75.963 389.405 76.5174C389.282 77.0103 388.851 77.3184 388.298 77.2568L374.031 74.546L371.878 76.0246C374.953 91.0571 386.576 102.578 401.704 105.473C415.786 108.123 430.361 102.393 438.909 90.8722C438.97 90.8106 438.97 90.749 439.032 90.6874L443.521 86.8677C443.705 86.6829 444.013 86.6213 444.259 86.6829L469.411 91.4883C469.903 91.6115 470.21 92.0428 470.149 92.5973C470.026 93.0901 469.595 93.3982 469.042 93.3366L444.32 88.6543L440.262 92.1044C431.468 103.995 416.155 109.971 401.458 107.199Z" fill="#1F263D"/>
<path d="M471.684 84.9579L449.3 80.7069C449.054 80.6453 448.869 80.5221 448.685 80.3373L445.856 76.1479C445.733 75.9631 445.672 75.7166 445.733 75.4702C449.607 55.0778 436.201 35.363 415.846 31.4817C396.413 27.7852 377.473 39.8604 372.492 58.9591L374.828 62.4092L390.633 65.428C391.125 65.5512 391.432 65.9825 391.371 66.537C391.248 67.0298 390.817 67.3379 390.264 67.2763L374.09 64.1958C373.844 64.1342 373.66 64.011 373.475 63.8262L370.647 59.6984C370.524 59.452 370.462 59.2055 370.524 58.9591C375.566 38.6899 395.552 25.8137 416.092 29.695C437.308 33.6996 451.329 54.2152 447.516 75.4702L449.976 79.0435L471.992 83.2329C472.484 83.3561 472.791 83.7874 472.73 84.3418C472.668 84.7115 472.176 85.0195 471.684 84.9579Z" fill="#1F263D"/>
<path d="M400.411 112.682C380.486 108.924 365.481 92.1048 363.944 71.8355C363.944 71.5275 364.067 71.1578 364.374 70.973L368.986 67.831C369.171 67.7078 369.417 67.6462 369.663 67.7078L389.403 71.4659C389.895 71.5891 390.202 72.0204 390.141 72.5748C390.018 73.0677 389.588 73.3758 389.034 73.3141L369.663 69.6176L365.789 72.2668C367.449 91.4271 381.778 107.322 400.718 110.895C418.122 114.222 435.525 106.706 445.057 91.7351C445.241 91.4271 445.61 91.2422 445.979 91.3039L466.642 95.2468C467.134 95.37 467.441 95.8013 467.38 96.3558C467.257 96.8486 466.826 97.1567 466.273 97.0951L446.225 93.2753C436.324 108.431 418.368 116.071 400.411 112.682Z" fill="#1F263D"/>
<path d="M389.462 70.6034L369.968 66.9069C369.722 66.8453 369.537 66.7221 369.353 66.5373L364.864 59.9451C364.741 59.7603 364.679 59.4523 364.741 59.2674C367.139 47.6234 373.904 37.5812 383.743 30.9891C393.582 24.3354 405.451 21.9326 417.135 24.1506C428.758 26.3685 438.843 32.899 445.608 42.5715C452.188 51.9976 454.893 63.3952 453.295 74.7312L472.174 78.3661C472.666 78.4893 472.973 78.9206 472.912 79.4751C472.789 79.9679 472.358 80.276 471.805 80.2144L452.003 76.4562C451.511 76.333 451.204 75.9018 451.265 75.4089C455.078 52.1208 439.888 30.4346 416.766 25.9988C393.951 21.6862 371.505 36.5955 366.586 59.329L370.644 65.2435L389.708 68.8784C390.2 69.0016 390.507 69.4328 390.446 69.9873C390.446 70.357 389.954 70.7266 389.462 70.6034Z" fill="#1F263D"/>
<path d="M399.366 118.103C372 112.928 353.982 86.375 359.148 58.9592C364.313 31.5434 390.818 13.4304 418.184 18.6672C441.429 23.103 458.648 43.3722 459.263 67.0299L461.477 70.2951L472.484 72.3898C472.976 72.5131 473.284 72.9443 473.222 73.4988C473.099 73.9917 472.669 74.2997 472.116 74.2381L460.739 72.0818C460.493 72.0202 460.308 71.897 460.124 71.7121L457.541 67.8924C457.418 67.7692 457.357 67.5844 457.357 67.3995C456.865 44.5428 440.261 24.828 417.753 20.577C391.372 15.5867 365.912 33.022 360.87 59.3904C355.889 85.8205 373.23 111.388 399.612 116.378C418.184 119.89 437.432 111.943 448.563 96.0475C448.747 95.7395 449.116 95.6163 449.485 95.6779L463.814 98.3886C464.306 98.5119 464.613 98.9431 464.552 99.4976C464.429 99.9905 463.998 100.299 463.445 100.237L449.731 97.6493C438.231 113.668 418.491 121.738 399.366 118.103Z" fill="#1F263D"/>
<path d="M469.226 89.7637L444.75 85.1431C444.504 85.0815 444.32 84.9582 444.135 84.7734L439.646 78.1813C439.462 77.9349 439.462 77.6884 439.523 77.3804C439.769 76.3947 440.015 75.4089 440.2 74.4232C443.459 57.0496 432.082 40.2304 414.74 36.9036C399.551 34.008 384.607 42.3251 379.011 56.6799L380.057 58.2817L391.433 60.438C391.925 60.5613 392.233 60.9925 392.171 61.547C392.048 62.0399 391.618 62.3479 391.064 62.2863L379.319 60.0684C379.073 60.0068 378.888 59.8836 378.704 59.6987L377.166 57.4192C376.982 57.1728 376.982 56.8647 377.043 56.5567C382.824 41.0929 398.813 32.0981 415.048 35.1785C433.373 38.6902 445.488 56.4335 441.983 74.8544C441.798 75.7786 441.614 76.6411 441.368 77.5652L445.427 83.5413L469.533 88.1003C470.025 88.2235 470.332 88.6548 470.271 89.2092C470.209 89.5173 469.717 89.8253 469.226 89.7637Z" fill="#1F263D"/>
<path d="M396.227 135.046C359.883 128.146 335.962 92.9057 342.849 56.5566C349.737 20.146 384.912 -3.81978 421.195 3.08038C457.539 9.98054 481.46 45.2206 474.573 81.5697C467.685 117.98 432.571 141.946 396.227 135.046ZM420.272 7.88585C386.634 1.47856 354.041 23.7193 347.646 57.4192C341.25 91.119 363.45 123.772 397.088 130.179C430.726 136.586 463.381 114.345 469.776 80.6456C476.172 46.9457 453.972 14.2931 420.272 7.88585Z" fill="#1F263D"/>
<path d="M396.227 135.046C359.883 128.146 335.962 92.9057 342.849 56.5566C349.737 20.146 384.912 -3.81978 421.195 3.08038C457.539 9.98054 481.46 45.2206 474.573 81.5697C467.685 117.98 432.571 141.946 396.227 135.046Z" stroke="#253B6D" stroke-width="2" stroke-miterlimit="10" stroke-linecap="round" stroke-linejoin="round"/>
<path d="M433.625 74.7924C431.78 72.0201 428.951 69.987 425.446 69.2477V69.1861C430.365 69.8637 435.039 66.5369 435.962 61.5466C436.699 57.6652 435.777 53.9071 433.748 50.8883C431.718 47.8695 428.521 45.6516 424.646 44.9123L419.85 43.9881V44.0497H419.727L422.186 31.0503L416.59 30.003L414.131 43.0024L407.12 41.647L409.58 28.6476L403.984 27.6619L401.524 40.6613L385.966 37.7041L384.859 43.4337L395.128 45.4051L387.503 85.6972L380.062 84.2802L377.11 90.8723L391.808 93.6447L389.532 105.72L395.128 106.767L397.404 94.692L404.168 95.9858L401.893 108.061L407.489 109.108L409.764 97.0331L412.901 97.6492L415.545 98.0189C424.769 99.7439 433.686 93.7063 435.408 84.465C436.269 80.9533 435.47 77.5032 433.625 74.7924ZM406.936 49.4097L415.668 51.0731C419.419 51.8124 421.879 55.3857 421.141 59.1439C420.403 62.902 416.836 65.3663 413.085 64.627L404.353 62.9636L406.936 49.4097ZM417.39 87.4838C415.791 88.5928 413.762 89.024 411.732 88.6544L399.925 86.4365L402.754 71.6504L414.561 73.8683C418.62 74.6692 421.326 78.6122 420.526 82.6783C420.157 84.7114 418.927 86.4365 417.39 87.4838Z" fill="#1F263D"/>
<path d="M422.243 31.1125L419.783 44.1119H419.906V44.0503L424.702 44.9744C428.577 45.7137 431.774 47.9316 433.804 50.9505C435.833 53.9693 436.756 57.789 436.018 61.6087C435.095 66.599 430.422 69.8643 425.502 69.2482V69.3098C428.946 70.0491 431.836 72.0822 433.681 74.8546C435.526 77.627 436.325 81.0154 435.649 84.5271C433.927 93.7684 425.01 99.8677 415.786 98.081L413.141 97.7114L410.005 97.0953L407.73 109.171L402.134 108.123L404.409 96.0479L397.644 94.7542L395.369 106.829L389.773 105.782L392.048 93.7068L377.351 90.9344L380.303 84.3423L387.744 85.7593L395.369 45.4673L385.099 43.4958L386.206 37.7662L401.765 40.7234L404.224 27.724L409.821 28.7714L407.361 41.7708L414.371 43.1262L416.831 30.1268L422.243 31.1125ZM404.347 63.0257L413.08 64.6892C416.831 65.4285 420.398 62.9025 421.136 59.206C421.874 55.4479 419.414 51.8746 415.663 51.1353L406.93 49.4719L404.347 63.0257ZM399.92 86.437L411.727 88.6549C413.756 89.0246 415.786 88.5933 417.384 87.4844C418.983 86.3754 420.152 84.712 420.521 82.6789C421.32 78.6127 418.614 74.6698 414.556 73.8689L402.749 71.6509L399.92 86.437ZM422.489 29.9419L416.893 28.8946C416.216 28.7714 415.601 29.2026 415.478 29.8803L413.264 41.6476L408.652 40.785L410.866 29.0178C410.989 28.3401 410.558 27.724 409.882 27.6008L404.286 26.5535C403.609 26.4302 402.995 26.8615 402.872 27.5392L400.658 39.3064L386.268 36.5957C385.591 36.4724 384.976 36.9037 384.853 37.5814L383.746 43.311C383.623 43.9887 384.054 44.6048 384.73 44.728L393.832 46.453L386.698 84.3423L380.487 83.1718C379.934 83.0485 379.38 83.3566 379.134 83.9111L376.182 90.5032C376.059 90.8728 376.059 91.2425 376.244 91.5505C376.428 91.8586 376.736 92.105 377.105 92.1666L390.634 94.7542L388.605 105.597C388.482 106.275 388.912 106.891 389.588 107.014L395.185 108.062C395.861 108.185 396.476 107.754 396.599 107.076L398.628 96.2328L402.995 97.0337L400.965 107.877C400.842 108.554 401.273 109.171 401.949 109.294L407.545 110.341C408.222 110.464 408.837 110.033 408.96 109.355L410.989 98.5123L412.957 98.8819H413.018L415.663 99.2516C425.563 101.1 435.095 94.5693 436.94 84.712C437.617 81.0155 436.879 77.2573 434.788 74.1153C433.619 72.3902 432.205 70.9733 430.483 69.9259C433.927 68.6937 436.633 65.6749 437.371 61.8552C438.17 57.789 437.309 53.6612 434.972 50.2728C432.635 46.8227 429.13 44.5432 425.071 43.8039L421.382 43.1262L423.596 31.4205C423.596 30.6812 423.165 30.0651 422.489 29.9419ZM407.853 50.8888L415.355 52.3058C418.43 52.8603 420.459 55.8791 419.844 58.9596C419.291 62.04 416.278 64.0731 413.203 63.457L405.7 62.04L407.853 50.8888ZM403.671 73.0679L414.31 75.101C417.692 75.7787 419.967 79.044 419.352 82.4941C419.045 84.1575 418.122 85.5745 416.708 86.5602C415.294 87.4844 413.633 87.854 411.973 87.546L401.334 85.5129L403.671 73.0679Z" fill="#293450"/>
<path d="M417.019 23.1032C417.695 23.2264 418.126 23.9041 418.003 24.5818L417.695 26.0604C417.572 26.7381 416.896 27.1693 416.219 27.0461L411.238 26.122C410.562 25.9988 410.131 25.3211 410.254 24.6434L410.562 23.1648C410.685 22.4871 411.361 22.0558 412.038 22.179L417.019 23.1032ZM417.265 21.871L412.284 20.9469C410.931 20.7004 409.639 21.563 409.393 22.9183L409.086 24.397C408.84 25.7523 409.701 27.0461 411.054 27.2926L416.035 28.2167C417.388 28.4631 418.679 27.6006 418.925 26.2452L419.233 24.7666C419.479 23.4728 418.618 22.179 417.265 21.871Z" fill="#293450"/>
<path d="M400.538 110.156C401.214 110.279 401.645 110.957 401.522 111.635L401.214 113.113C401.091 113.791 400.415 114.222 399.739 114.099L394.757 113.175C394.081 113.052 393.651 112.374 393.774 111.696L394.081 110.218C394.204 109.54 394.88 109.109 395.557 109.232L400.538 110.156ZM400.784 108.985L395.803 108.061C394.45 107.815 393.159 108.677 392.913 110.033L392.605 111.511C392.359 112.867 393.22 114.161 394.573 114.407L399.554 115.331C400.907 115.578 402.198 114.715 402.444 113.36L402.752 111.881C402.998 110.526 402.137 109.232 400.784 108.985Z" fill="#272E45"/>
<path d="M384.485 67.8307C385.161 67.9539 385.592 68.6316 385.469 69.3093L385.161 70.7879C385.038 71.4656 384.362 71.8969 383.685 71.7737L378.704 70.8495C378.028 70.7263 377.597 70.0486 377.72 69.3709L378.028 67.8923C378.151 67.2146 378.827 66.7834 379.504 66.9066L384.485 67.8307ZM384.731 66.5985L379.75 65.6744C378.397 65.428 377.105 66.2905 376.859 67.6459L376.552 69.1245C376.306 70.4799 377.167 71.7737 378.52 72.0201L383.501 72.9442C384.854 73.1906 386.145 72.3281 386.391 70.9727L386.699 69.4941C386.945 68.1387 386.084 66.845 384.731 66.5985Z" fill="#272E45"/>
<path d="M385.347 63.2102C386.024 63.3334 386.454 64.0111 386.331 64.6888L386.024 66.1674C385.901 66.8451 385.224 67.2764 384.548 67.1532L379.567 66.2291C378.89 66.1058 378.46 65.4281 378.583 64.7504L378.89 63.2718C379.013 62.5941 379.69 62.1629 380.366 62.2861L385.347 63.2102ZM385.593 61.9781L380.612 61.0539C379.259 60.8075 377.968 61.67 377.722 63.0254L377.414 64.504C377.168 65.8594 378.029 67.1532 379.382 67.3996L384.363 68.3237C385.716 68.5702 387.008 67.7077 387.254 66.3523L387.561 64.8737C387.807 63.5183 386.946 62.2245 385.593 61.9781Z" fill="#272E45"/>
<path d="M466.278 76.1485C466.954 76.2717 467.385 76.9494 467.262 77.6271L466.954 79.1057C466.831 79.7834 466.155 80.2146 465.478 80.0914L460.497 79.1673C459.821 79.0441 459.39 78.3664 459.513 77.6887L459.821 76.2101C459.943 75.5324 460.62 75.1011 461.296 75.2243L466.278 76.1485ZM466.524 74.9163L461.542 73.9922C460.189 73.7457 458.898 74.6082 458.652 75.9636L458.345 77.4422C458.099 78.7976 458.96 80.0914 460.312 80.3378L465.294 81.262C466.647 81.5084 467.938 80.6459 468.184 79.2905L468.492 77.8119C468.737 76.4565 467.877 75.1627 466.524 74.9163Z" fill="#293450"/>
<path d="M383.566 72.8212C384.242 72.9444 384.673 73.6221 384.55 74.2998L384.242 75.7784C384.119 76.4561 383.443 76.8874 382.766 76.7641L377.785 75.84C377.109 75.7168 376.678 75.0391 376.801 74.3614L377.109 72.8828C377.232 72.2051 377.908 71.7738 378.585 71.8971L383.566 72.8212ZM383.75 71.589L378.769 70.6649C377.416 70.4184 376.125 71.281 375.879 72.6364L375.571 74.115C375.325 75.4704 376.186 76.7641 377.539 77.0106L382.52 77.9347C383.873 78.1811 385.165 77.3186 385.411 75.9632L385.718 74.4846C386.026 73.1292 385.103 71.8354 383.75 71.589Z" fill="#272E45"/>
<path d="M455.701 83.2947C456.377 83.418 456.808 84.0956 456.685 84.7733L455.578 90.4413C455.455 91.119 454.778 91.5503 454.102 91.4271L448.444 90.3181C447.768 90.1949 447.337 89.5172 447.46 88.8395L448.567 83.1715C448.69 82.4938 449.367 82.0626 450.043 82.1858L455.701 83.2947ZM455.885 82.1242L450.228 81.0152C448.875 80.7688 447.583 81.6313 447.337 82.9867L446.23 88.6547C445.984 90.0101 446.845 91.3038 448.198 91.5503L453.856 92.6592C455.209 92.9057 456.5 92.0432 456.746 90.6878L457.853 85.0198C458.161 83.6644 457.238 82.3706 455.885 82.1242Z" fill="#293450"/>
<path d="M395.007 123.587C394.823 124.264 394.146 124.634 393.47 124.449L388.427 122.786C387.812 122.539 387.443 121.8 387.751 121.184L388.243 120.013C388.489 119.397 389.227 119.028 389.903 119.274L394.454 120.814C395.13 120.999 395.499 121.738 395.315 122.416L395.007 123.587ZM399.742 125.866C399.066 125.743 398.635 125.127 398.758 124.449L399.004 123.217C399.127 122.539 399.804 122.046 400.48 122.17L405.277 122.724C405.953 122.786 406.507 123.402 406.445 124.08L406.384 125.373C406.322 126.051 405.769 126.606 405.093 126.544L399.742 125.866ZM384.245 119.582C383.938 120.198 383.2 120.445 382.585 120.137L377.973 117.426C377.419 117.056 377.235 116.317 377.604 115.701L378.342 114.653C378.711 114.099 379.51 113.914 380.125 114.284L384.307 116.687C384.922 116.995 385.168 117.796 384.86 118.412L384.245 119.582ZM411.427 126.606C410.75 126.667 410.135 126.113 410.135 125.435V124.141C410.135 123.463 410.689 122.847 411.365 122.847L416.162 122.416C416.838 122.355 417.515 122.847 417.576 123.525L417.761 124.819C417.884 125.497 417.392 126.113 416.715 126.236L411.427 126.606ZM374.529 113.421C374.099 113.976 373.299 114.037 372.807 113.606L368.872 110.033C368.38 109.54 368.38 108.739 368.872 108.308L369.794 107.445C370.286 106.952 371.085 106.952 371.577 107.445L375.144 110.649C375.698 111.08 375.759 111.881 375.329 112.436L374.529 113.421ZM423.049 124.942C422.373 125.127 421.696 124.696 421.573 124.018L421.266 122.786C421.143 122.108 421.512 121.43 422.188 121.246L426.801 119.829C427.477 119.582 428.215 119.952 428.399 120.629L428.83 121.862C429.076 122.478 428.768 123.217 428.092 123.463L423.049 124.942ZM366.289 105.412C365.735 105.843 364.997 105.782 364.567 105.227L361.431 100.915C361.062 100.36 361.185 99.5594 361.8 99.1897L362.906 98.512C363.46 98.1424 364.259 98.3272 364.69 98.8817L367.519 102.763C367.949 103.317 367.888 104.118 367.334 104.55L366.289 105.412ZM434.057 120.938C433.442 121.246 432.704 120.999 432.397 120.383L431.843 119.213C431.536 118.596 431.843 117.796 432.458 117.487L436.701 115.208C437.316 114.838 438.054 115.023 438.423 115.639L439.1 116.748C439.469 117.303 439.284 118.104 438.669 118.473L434.057 120.938ZM359.832 95.9245C359.217 96.2325 358.479 95.9861 358.171 95.37L355.957 90.5029C355.711 89.8868 356.019 89.1475 356.634 88.9011L357.864 88.4698C358.479 88.2234 359.278 88.5314 359.524 89.2091L361.492 93.5833C361.8 94.1994 361.554 95.0003 360.939 95.3084L359.832 95.9245ZM444.019 114.715C443.466 115.146 442.728 115.023 442.297 114.469L441.56 113.421C441.129 112.867 441.252 112.066 441.806 111.635L445.495 108.554C445.987 108.061 446.787 108.123 447.279 108.616L448.201 109.54C448.693 110.033 448.632 110.834 448.14 111.265L444.019 114.715ZM355.465 85.3278C354.789 85.5126 354.113 85.143 353.928 84.4653L352.76 79.2901C352.637 78.6124 353.067 77.9964 353.744 77.8731L355.035 77.6883C355.711 77.5651 356.388 78.058 356.511 78.7357L357.556 83.4179C357.741 84.0956 357.31 84.7733 356.695 85.0197L355.465 85.3278ZM452.506 106.644C452.075 107.199 451.276 107.199 450.784 106.768L449.8 105.905C449.308 105.474 449.247 104.611 449.677 104.118L452.629 100.299C453.059 99.7442 453.859 99.621 454.412 99.9906L455.458 100.73C456.011 101.1 456.134 101.9 455.765 102.455L452.506 106.644ZM353.313 74.0534C352.637 74.115 352.022 73.6221 352.022 72.8828L351.96 67.5229C351.96 66.8452 352.575 66.2907 353.252 66.3523L354.543 66.4139C355.219 66.4756 355.773 67.03 355.773 67.7077L355.834 72.5132C355.896 73.1909 355.342 73.807 354.666 73.8686L353.313 74.0534ZM353.498 62.5326C352.821 62.471 352.329 61.7933 352.452 61.1156C352.452 61.1156 352.883 58.3432 353.313 56.3718C353.436 55.8173 353.436 55.8173 353.436 55.8173C353.621 55.2012 354.297 54.8315 354.912 55.0164L356.142 55.3244C356.818 55.5092 357.249 56.1253 357.064 56.6798C357.064 56.6798 357.064 56.6798 356.941 57.2343C356.511 59.0825 356.142 61.6085 356.142 61.6085C356.019 62.2862 355.404 62.779 354.728 62.7174L353.498 62.5326ZM358.909 50.9502C358.663 51.5663 357.925 51.9359 357.31 51.7511L356.08 51.3198C355.404 51.0734 355.096 50.3957 355.342 49.718L357.372 44.7893C357.679 44.1733 358.417 43.9268 359.032 44.2349L360.201 44.7893C360.816 45.0974 361.062 45.8367 360.816 46.5144L358.909 50.9502ZM463.821 68.7551C463.145 68.7551 462.53 68.2006 462.53 67.5229L462.161 62.7174C462.099 62.0397 462.591 61.362 463.268 61.3004L464.559 61.1156C465.235 60.9924 465.85 61.4853 465.912 62.163L466.342 67.4613C466.342 68.139 465.85 68.6935 465.174 68.7551H463.821ZM363.706 41.0928C363.337 41.6473 362.537 41.8937 361.984 41.5241L360.877 40.8464C360.262 40.4767 360.078 39.7374 360.447 39.1213L363.46 34.6855C363.89 34.1311 364.628 34.0078 365.182 34.4391L366.166 35.24C366.719 35.6713 366.842 36.4722 366.412 37.0267L363.706 41.0928ZM462.591 57.6039C461.915 57.7271 461.238 57.2959 461.054 56.6798L459.701 52.0592C459.455 51.3815 459.824 50.6422 460.5 50.4573L461.73 50.0261C462.407 49.7796 463.083 50.1493 463.329 50.7654L464.805 55.8789C464.989 56.5566 464.559 57.2343 463.883 57.3575L462.591 57.6039ZM370.409 32.406C369.917 32.8989 369.118 32.8989 368.626 32.4676L367.703 31.6051C367.211 31.1122 367.15 30.3729 367.642 29.8801L371.454 26.1835C371.946 25.7523 372.746 25.7523 373.176 26.3068L373.976 27.2925C374.406 27.847 374.345 28.6479 373.853 29.0792L370.409 32.406ZM459.086 46.9456C458.471 47.2537 457.671 46.9456 457.364 46.3296L455.089 42.0786C454.72 41.4625 454.966 40.7232 455.519 40.3535L456.626 39.6758C457.241 39.3062 457.979 39.491 458.286 40.1071L460.808 44.7893C461.115 45.4054 460.869 46.1447 460.193 46.4528L459.086 46.9456ZM378.711 25.321C378.157 25.6907 377.358 25.5675 376.927 25.013L376.19 23.9656C375.759 23.4112 375.944 22.6102 376.497 22.2406L380.986 19.4066C381.601 19.037 382.339 19.2834 382.647 19.8995L383.262 21.0084C383.569 21.6245 383.385 22.4254 382.77 22.7335L378.711 25.321ZM453.428 37.2115C452.875 37.6427 452.075 37.5195 451.645 36.965L448.57 33.2685C448.14 32.7757 448.14 31.9131 448.632 31.4819L449.554 30.6194C450.046 30.1265 450.845 30.1881 451.276 30.681L454.658 34.8087C455.089 35.3632 454.966 36.1025 454.412 36.5338L453.428 37.2115ZM388.304 20.0227C387.689 20.2691 386.89 19.9611 386.644 19.345L386.09 18.1744C385.783 17.5583 386.09 16.819 386.705 16.5726L391.686 14.7244C392.363 14.4779 393.039 14.8476 393.224 15.5253L393.593 16.7574C393.777 17.4351 393.408 18.1128 392.732 18.3593L388.304 20.0227ZM445.987 28.8327C445.495 29.3256 444.696 29.3872 444.204 28.9559L440.453 25.9371C439.899 25.5059 439.776 24.7049 440.145 24.1505L440.883 23.1031C441.252 22.5486 442.051 22.4254 442.605 22.7951L446.787 26.1219C447.34 26.5532 447.34 27.3541 446.91 27.847L445.987 28.8327ZM398.758 16.7574C398.082 16.8807 397.406 16.4494 397.283 15.7717L396.975 14.5395C396.852 13.8618 397.283 13.1841 397.959 13.0609L403.248 12.26C403.924 12.1984 404.539 12.6913 404.601 13.369L404.724 14.6627C404.785 15.3404 404.293 15.9565 403.555 16.0797L398.758 16.7574ZM436.947 22.1174C436.578 22.7335 435.84 22.9183 435.225 22.6103L430.921 20.454C430.306 20.1459 429.998 19.4066 430.244 18.7905L430.736 17.62C430.982 17.0039 431.72 16.6958 432.335 17.0039L437.07 19.4066C437.685 19.7146 437.87 20.5156 437.562 21.07L436.947 22.1174ZM409.643 15.7717C408.967 15.7717 408.413 15.1556 408.352 14.4779V13.1841C408.352 12.5064 408.905 11.952 409.582 11.952L414.87 12.26C415.547 12.3216 416.039 12.9377 415.977 13.6154L415.793 14.9092C415.731 15.5869 415.055 16.0797 414.378 16.0181L409.643 15.7717ZM426.801 17.4351C426.555 18.1128 425.878 18.4825 425.202 18.236L420.528 17.0039C419.852 16.819 419.421 16.1413 419.544 15.4637L419.79 14.2315C419.913 13.5538 420.589 13.1225 421.266 13.3074L426.432 14.6627C427.108 14.8476 427.477 15.5869 427.231 16.203L426.801 17.4351Z" fill="#1F263D"/>
<path d="M417.752 26.0605C417.629 26.7381 416.953 27.1694 416.276 27.0462L411.295 26.1221C410.618 25.9988 410.188 25.3212 410.311 24.6435L410.618 23.1649C410.741 22.4872 411.418 22.0559 412.094 22.1791L417.076 23.1032C417.752 23.2265 418.183 23.9042 418.06 24.5819L417.752 26.0605Z" fill="#1F263D"/>
<path d="M401.272 113.174C401.149 113.852 400.472 114.283 399.796 114.16L394.814 113.236C394.138 113.113 393.708 112.435 393.831 111.757L394.138 110.279C394.261 109.601 394.937 109.17 395.614 109.293L400.595 110.217C401.272 110.34 401.702 111.018 401.579 111.696L401.272 113.174Z" fill="#1F263D"/>
<path d="M385.224 70.7884C385.101 71.4661 384.424 71.8974 383.748 71.7742L378.767 70.85C378.09 70.7268 377.66 70.0491 377.783 69.3714L378.09 67.8928C378.213 67.2151 378.89 66.7839 379.566 66.9071L384.547 67.8312C385.224 67.9544 385.654 68.6321 385.531 69.3098L385.224 70.7884Z" fill="#1F263D"/>
<path d="M386.084 66.1676C385.961 66.8453 385.284 67.2766 384.608 67.1533L379.626 66.2292C378.95 66.106 378.52 65.4283 378.643 64.7506L378.95 63.272C379.073 62.5943 379.749 62.163 380.426 62.2862L385.407 63.2104C386.084 63.3336 386.514 64.0113 386.391 64.689L386.084 66.1676Z" fill="#1F263D"/>
<path d="M467.015 79.1053C466.892 79.783 466.215 80.2143 465.539 80.0911L460.558 79.1669C459.881 79.0437 459.451 78.366 459.574 77.6883L459.881 76.2097C460.004 75.532 460.681 75.1008 461.357 75.224L466.338 76.1481C467.015 76.2713 467.445 76.949 467.322 77.6267L467.015 79.1053Z" fill="#1F263D"/>
<path d="M384.236 75.7783C384.113 76.456 383.436 76.8873 382.76 76.764L377.779 75.8399C377.102 75.7167 376.672 75.039 376.795 74.3613L377.102 72.8827C377.225 72.205 377.902 71.7737 378.578 71.897L383.559 72.8211C384.236 72.9443 384.666 73.622 384.543 74.2997L384.236 75.7783Z" fill="#1F263D"/>
<path d="M455.576 90.5644C455.453 91.2421 454.777 91.6733 454.101 91.5501L448.443 90.4412C447.766 90.3179 447.336 89.6403 447.459 88.9626L448.566 83.2946C448.689 82.6169 449.365 82.1856 450.042 82.3088L455.699 83.4178C456.376 83.541 456.806 84.2187 456.683 84.8964L455.576 90.5644Z" fill="#1F263D"/>
<path d="M538.717 95.5548H122.514C109.784 95.5548 99.453 85.2045 99.453 72.4515V394.972C99.453 407.725 109.784 418.076 122.514 418.076H538.717C551.447 418.076 561.778 407.725 561.778 394.972V118.658C561.778 105.905 551.508 95.5548 538.717 95.5548Z" fill="#0A1B2D"/>
<path d="M99.5146 379.94C99.5146 381.172 99.6376 382.404 99.8221 383.637" stroke="#253B6D" stroke-width="2" stroke-linecap="round" stroke-linejoin="round"/>
<path d="M102.095 390.599C105.969 397.992 113.656 402.982 122.573 402.982H527.338C540.068 402.982 548.493 394.542 548.493 381.789V132.274C548.493 119.521 540.068 111.08 527.338 111.08H122.573C112.365 111.08 103.756 104.427 100.681 95.2469" stroke="#253B6D" stroke-width="2" stroke-linecap="round" stroke-linejoin="round" stroke-dasharray="12.03 12.03"/>
<path d="M99.7605 91.6739C99.576 90.5034 99.453 89.2712 99.453 87.9774" stroke="#253B6D" stroke-width="2" stroke-linecap="round" stroke-linejoin="round"/>
<path d="M538.717 95.5548H122.514C109.784 95.5548 99.453 85.2045 99.453 72.4515V394.972C99.453 407.725 109.784 418.076 122.514 418.076H538.717C551.447 418.076 561.778 407.725 561.778 394.972V118.658C561.778 105.905 551.508 95.5548 538.717 95.5548Z" stroke="#253B6D" stroke-width="2" stroke-miterlimit="10" stroke-linecap="round" stroke-linejoin="round"/>
<path d="M570.08 208.915L470.334 208.977C443.83 208.977 422.368 230.416 422.368 256.97C422.368 283.523 443.83 305.024 470.334 305.024H570.08C582.81 305.024 593.141 294.674 593.141 281.921V185.812C593.141 198.565 582.872 208.915 570.08 208.915Z" fill="#0A1B2D"/>
<path d="M561.841 162.647H570.143C582.873 162.647 593.204 172.997 593.204 185.75" stroke="#253B6D" stroke-width="2" stroke-miterlimit="10" stroke-linecap="round" stroke-linejoin="round"/>
<path d="M593.139 207.498C593.139 208.73 593.016 209.962 592.708 211.194" stroke="#253B6D" stroke-width="2" stroke-linecap="round" stroke-linejoin="round"/>
<path d="M589.512 217.725C586.56 221.298 582.071 223.578 577.09 223.578L470.579 223.639C452.131 223.639 437.187 238.548 437.187 257.093C437.187 275.575 452.131 290.546 470.579 290.546H577.09C583.424 290.546 588.897 286.911 591.48 281.551" stroke="#253B6D" stroke-width="2" stroke-linecap="round" stroke-linejoin="round" stroke-dasharray="11.98 11.98"/>
<path d="M592.773 278.101C593.019 276.931 593.203 275.698 593.203 274.405" stroke="#253B6D" stroke-width="2" stroke-linecap="round" stroke-linejoin="round"/>
<path d="M470.397 272.619C479.058 272.619 486.079 265.585 486.079 256.908C486.079 248.232 479.058 241.198 470.397 241.198C461.737 241.198 454.716 248.232 454.716 256.908C454.716 265.585 461.737 272.619 470.397 272.619Z" fill="#1B2647"/>
<path d="M570.08 208.915L470.334 208.977C443.83 208.977 422.368 230.416 422.368 256.97C422.368 283.523 443.83 305.024 470.334 305.024H570.08C582.81 305.024 593.141 294.674 593.141 281.921V185.812C593.141 198.565 582.872 208.915 570.08 208.915Z" stroke="#253B6D" stroke-width="2" stroke-miterlimit="10" stroke-linecap="round" stroke-linejoin="round"/>
<path d="M194.22 383.452C133.585 385.916 78.362 344.207 65.5094 282.783C51.2424 214.336 95.0888 147.183 163.472 132.951" stroke="#253B6D" stroke-width="4" stroke-miterlimit="10" stroke-linecap="round" stroke-linejoin="round"/>
<path d="M147.237 124.573L164.087 132.766L151.911 147.06" stroke="#253B6D" stroke-width="4" stroke-miterlimit="10" stroke-linecap="round" stroke-linejoin="round"/>
<path d="M185.301 130.056C245.936 127.591 301.159 169.3 314.012 230.724C328.279 299.171 284.432 366.263 216.11 380.556" stroke="#253B6D" stroke-width="4" stroke-miterlimit="10" stroke-linecap="round" stroke-linejoin="round"/>
<path d="M232.221 388.935L215.432 380.741L227.547 366.51" stroke="#253B6D" stroke-width="4" stroke-miterlimit="10" stroke-linecap="round" stroke-linejoin="round"/>
<path d="M555.631 413.763H657.037" stroke="#272E45" stroke-width="2" stroke-miterlimit="10" stroke-linecap="round" stroke-linejoin="round"/>
<path d="M565.716 408.896H594.127" stroke="#272E45" stroke-width="2" stroke-miterlimit="10" stroke-linecap="round" stroke-linejoin="round"/>
<path d="M281.663 74.5466H124.726C122.512 74.5466 120.79 76.3333 120.79 78.4896C120.79 80.7075 122.574 82.4325 124.726 82.4325H281.602C283.815 82.4325 285.537 80.6459 285.537 78.4896C285.599 76.3333 283.815 74.5466 281.663 74.5466Z" fill="#293450"/>
<path d="M281.663 58.5281H124.726C122.512 58.5281 120.79 60.3147 120.79 62.471C120.79 64.6889 122.574 66.414 124.726 66.414H281.602C283.815 66.414 285.537 64.6273 285.537 62.471C285.599 60.3147 283.815 58.5281 281.663 58.5281Z" fill="#293450"/>
<path d="M281.663 32.1597H124.726C122.512 32.1597 120.79 33.9464 120.79 36.1027C120.79 38.3206 122.574 40.0456 124.726 40.0456H281.602C283.815 40.0456 285.537 38.259 285.537 36.1027C285.599 33.8848 283.815 32.1597 281.663 32.1597Z" fill="#293450"/>
<path d="M281.663 16.1414H124.726C122.512 16.1414 120.79 17.9281 120.79 20.0844C120.79 22.3023 122.574 24.0273 124.726 24.0273H281.602C283.815 24.0273 285.537 22.2407 285.537 20.0844C285.599 17.8665 283.815 16.1414 281.663 16.1414Z" fill="#293450"/>
<path d="M281.666 0H124.729C122.515 0 120.793 1.78665 120.793 3.94295C120.793 6.16086 122.576 7.8859 124.729 7.8859H281.604C283.818 7.8859 285.54 6.09925 285.54 3.94295C285.602 1.78665 283.818 0 281.666 0Z" fill="#293450"/>
<path d="M189.73 154.083C196.802 154.083 202.522 159.813 202.522 166.898C202.522 173.736 197.725 179.281 190.468 179.651C232.654 180.02 266.723 214.398 266.723 256.723C266.723 299.294 232.347 333.795 189.853 333.795C182.105 333.795 177.001 339.525 177.001 346.61C177.001 353.695 182.72 359.424 189.792 359.424C190.161 359.424 190.591 359.424 190.96 359.363C247.044 358.747 292.305 313.033 292.305 256.661C292.244 200.043 246.307 154.083 189.73 154.083Z" fill="#293450"/>
<path d="M176.94 346.672C176.94 339.771 181.859 334.103 189.3 333.857C161.504 333.672 134.754 318.332 121.224 291.84C117.719 284.94 110.278 282.968 104.006 286.172C97.7331 289.376 95.2118 297.077 98.4095 303.422C98.594 303.792 98.7785 304.1 99.0245 304.47C117.227 339.279 152.649 359.363 189.423 359.548C182.474 359.301 176.94 353.633 176.94 346.672Z" fill="#1B2647"/>
<path d="M189.729 154.021C189.36 154.021 188.93 154.021 188.561 154.083C132.477 154.699 87.2158 200.413 87.2158 256.785C87.2158 272.864 90.9056 288.082 97.4856 301.636C97.8546 302.375 98.531 303.792 98.408 303.422C95.2103 297.138 97.7316 289.376 104.004 286.172C110.092 283.092 117.164 284.817 120.854 291.162C115.688 280.812 112.798 269.168 112.798 256.846C112.798 214.275 147.174 179.774 189.668 179.774C197.416 179.774 202.52 174.044 202.52 166.959C202.52 159.751 196.801 154.021 189.729 154.021Z" fill="#253B6D"/>
<path d="M305.467 431.814H444.939" stroke="#293450" stroke-width="2" stroke-miterlimit="10" stroke-linecap="round" stroke-linejoin="round"/>
<path d="M282.403 436.25H461.909" stroke="#293450" stroke-width="2" stroke-miterlimit="10" stroke-linecap="round" stroke-linejoin="round"/>
<path d="M423.598 440.378H484.172" stroke="#293450" stroke-width="2" stroke-miterlimit="10" stroke-linecap="round" stroke-linejoin="round"/>
<path d="M423.781 445.245H503.541" stroke="#293450" stroke-width="2" stroke-miterlimit="10" stroke-linecap="round" stroke-linejoin="round"/>
<path d="M116.675 317.469L75.0424 359.178H1.7395" stroke="#293450" stroke-width="2" stroke-linecap="round" stroke-linejoin="round"/>
<path d="M116.616 320.364C118.144 320.364 119.383 319.123 119.383 317.592C119.383 316.061 118.144 314.819 116.616 314.819C115.088 314.819 113.849 316.061 113.849 317.592C113.849 319.123 115.088 320.364 116.616 320.364Z" fill="#293450"/>
<path d="M98.9028 247.851L75.0424 271.694H1.7395" stroke="#293450" stroke-width="2" stroke-linecap="round" stroke-linejoin="round"/>
<path d="M98.7838 250.747C100.312 250.747 101.551 249.506 101.551 247.975C101.551 246.443 100.312 245.202 98.7838 245.202C97.2554 245.202 96.0165 246.443 96.0165 247.975C96.0165 249.506 97.2554 250.747 98.7838 250.747Z" fill="#293450"/>
<path d="M34.3307 257.524H4.93573C2.72188 257.524 1 259.31 1 261.467C1 263.684 2.78338 265.409 4.93573 265.409H34.3307C36.5445 265.409 38.2664 263.623 38.2664 261.467C38.2664 259.31 36.5445 257.524 34.3307 257.524Z" fill="#293450"/>
<path d="M34.3307 345.008H4.93573C2.72188 345.008 1 346.795 1 348.951C1 351.169 2.78338 352.894 4.93573 352.894H34.3307C36.5445 352.894 38.2664 351.107 38.2664 348.951C38.2664 346.795 36.5445 345.008 34.3307 345.008Z" fill="#293450"/>
<path d="M393.344 90.4994C393.344 90.4994 446.415 137.26 447.03 221.048C447.645 304.836 413.822 370.942 413.822 370.942C413.822 370.942 421.57 336.872 386.087 344.82C359.152 350.796 335.23 372.852 290.953 358.928C264.141 350.488 270.906 316.048 249.69 328.493C231.856 338.967 205.29 320.977 205.29 320.977C205.29 320.977 242.618 306.314 270.906 247.909C299.194 189.504 300.977 89.5136 300.977 89.5136C300.977 89.5136 327.359 82.4902 358.23 84.1537C380.43 85.3858 393.344 90.4994 393.344 90.4994Z" fill="#1B2647"/>
<path d="M243.721 327.88C258.234 321.843 263.399 307.118 275.145 297.199C288.982 285.494 308.476 303.791 303.741 337.183C301.711 351.6 327.232 360.594 349.555 341.989C371.878 323.383 396.169 281.058 403.61 225.733C408.898 186.304 412.588 123.34 375.26 87.422C369.787 86.005 363.945 84.8345 358.164 84.2184C327.417 80.7683 300.912 89.5783 300.912 89.5783C300.912 89.5783 299.128 189.569 270.84 247.974C242.552 306.379 205.224 321.042 205.224 321.042C205.224 321.042 224.657 335.889 243.721 327.88Z" fill="#18203A"/>
<path d="M276.991 262.144C299.929 203.986 306.755 120.013 311.121 87.2993C304.479 88.3467 300.913 89.5172 300.913 89.5172C300.913 89.5172 291.75 183.655 263.462 242.06C235.174 300.465 205.225 321.042 205.225 321.042C205.225 321.042 207.255 340.387 233.636 344.084C247.165 320.364 267.151 287.096 276.991 262.144Z" fill="#253B6D"/>
<path d="M233.64 344.084C247.169 320.364 267.155 287.157 276.994 262.206C299.932 204.047 306.758 120.075 311.124 87.3607" stroke="#1B1733" stroke-width="2" stroke-miterlimit="10" stroke-linecap="round" stroke-linejoin="round"/>
<path d="M408.777 321.227C407.363 324.431 406.317 327.819 405.641 331.331C405.518 332.07 405.395 332.932 406.01 333.425C406.871 334.165 408.162 333.179 408.838 332.255C416.033 322.151 419.969 310.199 424.704 298.74C425.504 296.768 427.472 292.024 429.501 292.764C431.899 293.626 429.808 300.588 429.132 303.915C426.119 319.317 422.429 333.98 417.694 346.425" stroke="#1B1733" stroke-width="2" stroke-miterlimit="10" stroke-linecap="round" stroke-linejoin="round"/>
<path d="M292.185 326.402C292.185 326.402 290.955 333.918 294.153 344.084C295.198 347.472 297.105 350.737 297.105 350.737C297.105 350.737 297.843 356.652 299.749 365.092C309.035 363.86 320.165 371.438 331.973 370.575C332.034 370.39 332.034 370.206 331.973 370.144C330.681 366.324 329.205 360.102 325.823 355.296C322.441 350.429 318.567 344.823 318.874 340.387C319.427 332.378 330.312 315.312 331.788 305.085C333.264 294.858 341.689 254.505 304.853 239.965C298.211 237.316 295.69 240.704 293.292 250.377C290.894 260.111 282.469 284.816 283.944 300.834C285.42 316.791 292.185 326.402 292.185 326.402Z" fill="#237DBD"/>
<path d="M304.544 267.442C305.835 276.437 307.557 291.778 309.648 285.802C311.124 281.674 321.148 285.802 322.439 299.91C323.73 314.018 321.148 319.871 316.044 328.004C310.939 336.136 303.252 333.672 305.835 335.766C308.418 337.922 313.092 339.586 314.814 344.761C316.289 349.135 319.918 347.718 325.452 354.68C322.193 349.813 318.688 344.638 318.934 340.387C319.487 332.378 330.372 315.312 331.848 305.085C333.324 294.858 341.749 254.505 304.913 239.965C301.039 238.425 298.517 238.055 296.672 239.903C301.285 242.861 303.252 258.447 304.544 267.442Z" fill="#116DB0"/>
<path d="M241.572 166.097C245.57 158.026 251.289 150.263 257.192 144.226C253.872 141.145 249.321 138.742 243.048 137.325C231.057 134.615 219.864 127.345 215.867 122.909C215.683 122.724 216.113 118.72 216.974 114.161C217.835 109.663 210.948 96.1092 208.734 99.0048C207.811 100.237 208.303 102.948 207.996 104.611C207.688 106.213 206.704 106.706 206.827 106.829L202.277 100.853C202.277 100.853 193.175 91.735 190.408 93.7065C185.98 96.9101 187.579 113.544 191.146 120.26C192.622 123.094 197.05 125.004 203.138 128.823C205.29 130.179 204.737 131.041 206.089 133.074C208.488 136.833 210.394 137.202 215.437 146.135C218.819 152.111 228.843 165.234 238.928 171.765C239.666 170.101 240.773 167.698 241.572 166.097Z" fill="#253B6D"/>
<path d="M284.191 98.7581C275.213 106.89 275.643 113.667 275.643 113.667C275.643 113.667 270.601 119.52 265.681 133.382C261.807 144.287 262.668 148.415 261.376 147.552C258.363 145.519 257.687 145.889 256.58 144.841C250.676 150.879 245.572 157.964 241.575 166.035C240.775 167.698 239.976 169.362 239.299 171.025C240.652 171.888 243.051 174.475 246.802 176.2C254.181 179.589 255.903 182.176 259.285 183.963C265.374 187.167 268.817 181.56 268.817 181.56C268.817 181.56 273.983 177.987 278.841 173.674C284.806 168.438 292.739 159.689 297.167 154.268C302.21 148.168 305.961 139.235 305.961 139.235C305.961 139.235 325.024 120.568 320.597 105.905C316.169 91.3651 300.918 83.6024 284.191 98.7581Z" fill="#237DBD"/>
<path d="M285.173 150.879C284.804 156.609 284.312 169.177 290.216 179.342C297.349 191.602 299.994 199.18 300.916 208.36C301.285 212.241 301.593 218.587 301.347 222.345L370.529 221.914C370.037 218.402 369.73 213.473 370.591 208.237C372.313 198.01 373.297 195.299 380.43 187.475C387.564 179.65 404.598 154.083 406.258 135.354C407.98 116.625 419.541 93.8296 382.582 85.8821C347.53 78.3659 318.012 81.5695 302.454 89.3938C281.299 99.9905 279.516 130.179 279.516 137.017C279.516 143.856 285.419 146.751 285.173 150.879Z" fill="#378DCC"/>
<path d="M299.256 88.8393C297.411 89.4554 294.766 90.6876 293.229 94.0144C290.892 99.1895 291.261 101.531 294.643 101.716C299.44 102.024 302.146 101.777 303.745 98.5119C305.774 94.1992 308.972 90.6259 311.309 88.2848C313.646 85.9437 315.367 85.3276 315.367 85.3276C315.367 85.3276 313.154 84.4651 308.849 85.6356C304.36 86.8678 302.576 87.7303 299.256 88.8393Z" fill="#1B2647"/>
<path d="M298.847 98.3217C300.507 97.9655 301.594 96.463 301.274 94.9658C300.954 93.4686 299.348 92.5438 297.688 92.9C296.027 93.2562 294.941 94.7587 295.261 96.2559C295.581 97.7531 297.186 98.6779 298.847 98.3217Z" fill="#2983C5"/>
<path d="M399.372 151.988C400.786 135.045 387.503 122.477 387.257 121.984C385.166 125.373 373.974 144.718 372.191 146.997C368.686 151.433 358.477 151.187 344.702 147.86C337.753 146.197 328.406 142.069 319.981 143.855C315.492 144.78 318.812 143.855 325.885 145.58C339.229 148.784 348.945 154.945 351.774 157.163C356.386 160.798 356.14 161.352 355.771 162.708C354.665 167.082 347.347 169.854 342.611 169.546C337.876 169.238 339.66 176.693 342.488 182.422C345.317 188.152 355.587 191.725 354.665 203.862C354.419 206.943 353.804 213.35 355.894 212.857C362.351 211.44 367.579 211.995 370.1 212.487C371.084 204.848 372.99 197.024 375.389 193.697C377.049 191.356 384.92 183.408 389.041 176.631C392.361 171.21 397.22 163.262 399.556 157.841C398.511 156.67 399.249 153.713 399.372 151.988Z" fill="#237DBD"/>
<path d="M320.103 47.1302C321.763 41.7703 322.071 41.031 325.576 39.6756C330.988 37.5809 351.835 36.9648 361.982 38.505C365.118 38.9979 366.04 39.0595 368.5 43.4337C371.021 47.9928 373.297 52.4902 375.818 61.0538C379.262 72.513 379.938 85.3276 379.938 85.3276C379.938 85.3276 376.679 85.0195 367.701 87.9767C359.645 90.6259 346.669 98.2037 330.25 95.6778C324.777 94.8153 318.996 90.133 316.721 88.0999C315.183 86.6829 313.708 86.4365 313.708 86.4365C313.708 86.4365 316.905 57.4189 320.103 47.1302Z" fill="#9CD6ED"/>
<path d="M371.822 224.686C370.838 222.653 370.346 220.681 370.1 215.814C354.726 220.004 337.507 221.421 320.042 221.421C313.77 221.421 307.62 221.113 301.532 220.558C300.056 226.041 299.134 229.923 297.965 233.866C295.813 241.197 295.136 244.031 295.136 244.031C295.136 244.031 299.503 244.647 303.438 249.514C307.436 254.381 310.695 261.281 314.446 266.087C322.379 276.376 333.694 276.068 333.694 276.068C333.694 276.068 338.491 260.296 345.501 251.424C352.512 242.552 361.552 238.671 368.624 240.889C379.939 244.401 379.201 261.22 379.201 261.22C379.201 261.22 382.46 245.571 378.771 237.932C375.081 230.292 373.42 228.074 371.822 224.686Z" fill="#253B6D"/>
<path d="M300.67 215.63C300.67 215.63 308.48 220.928 321.517 220.066C334.493 219.203 346.669 214.829 355.893 212.857C365.118 210.824 371.759 212.857 371.759 212.857L372.928 224.44C372.928 224.44 365.425 220.682 357.308 224.44C349.252 228.198 331.234 235.037 320.718 234.482C310.756 233.928 305.344 231.094 303.069 229.122C299.871 226.35 299.256 225.795 299.256 225.795L300.67 215.63Z" fill="#253B6D"/>
<path d="M372.928 224.44C372.928 224.44 365.425 220.682 357.308 224.44C349.252 228.198 331.234 235.037 320.718 234.482C310.756 233.928 305.344 231.094 303.069 229.122C299.871 226.35 299.256 225.796 299.256 225.796" stroke="#191D2B" stroke-width="2" stroke-miterlimit="10" stroke-linecap="round" stroke-linejoin="round"/>
<path d="M324.716 235.899C320.104 236.391 315.492 235.775 310.88 235.283C309.035 235.098 307.498 233.311 307.498 231.463C307.498 227.643 307.498 224.131 307.498 220.312C307.498 218.463 309.035 217.17 310.88 217.354C315.492 217.847 320.104 218.094 324.716 217.601C326.561 217.416 328.099 218.648 328.099 220.558C328.099 224.378 328.099 228.259 328.099 232.079C328.099 233.927 326.561 235.652 324.716 235.899Z" fill="#3CB8EB"/>
<path d="M214.823 110.033L200.925 116.686C199.08 117.549 196.927 116.686 196.251 114.776L184.321 81.0766C183.644 79.1667 184.813 77.072 186.842 76.6408L202.032 73.4987C203.692 73.1291 205.352 74.1148 205.906 75.7167L216.545 105.966C217.098 107.507 216.36 109.293 214.823 110.033Z" fill="#9CD6ED"/>
<path d="M444.019 204.848C435.04 204.848 426.431 203.431 418.375 200.844C417.084 205.218 416.1 210.085 417.637 216.369C420.527 228.321 419.113 233.127 418.067 240.273C417.33 245.571 417.268 246.496 417.268 246.619C417.022 246.804 414.009 248.405 409.52 249.638C405.092 250.87 402.017 258.14 403.309 259.495C405.522 261.774 404.846 263.191 404.969 262.883C404.969 262.883 402.325 269.476 405.276 271.262C410.073 274.096 409.458 270.954 410.872 271.262C417.391 272.926 419.851 273.11 421.942 272.679C425.262 272.063 427.415 270.03 427.415 270.03C427.415 270.03 428.03 266.765 428.706 259.618C429.383 252.472 435.348 245.448 438.361 238.302C441.067 231.956 448.139 216.677 449.492 204.787C447.647 204.787 445.864 204.848 444.019 204.848Z" fill="#253B6D"/>
<path d="M396.664 138.619C396.664 138.619 395.496 152.05 403.121 164.556C410.131 176.016 421.754 178.665 421.078 190.001C420.832 194.436 418.126 201.645 418.372 200.844C426.428 203.431 435.037 204.848 444.016 204.848C445.86 204.848 447.705 204.787 449.489 204.663C449.673 203.062 449.735 201.521 449.735 200.104C449.366 187.844 450.719 182.176 451.334 178.418C452.502 171.272 446.967 168.684 446.967 168.684C446.967 168.684 443.216 162.277 442.97 155.808C442.724 150.694 440.879 141.33 438.235 134.861C435.283 127.53 429.257 119.89 429.257 119.89C429.257 119.89 426.674 96.9101 411.73 93.8296C396.787 90.7492 394.758 91.7965 389.961 93.46C382.028 96.294 379.753 108.123 383.319 119.705C386.886 131.288 396.664 138.619 396.664 138.619Z" fill="#378DCC"/>
<path d="M327.052 74.4844C331.664 76.6407 337.138 77.0719 342.057 75.6549C341.873 75.7165 341.688 75.8398 341.504 75.9014" stroke="#1B1733" stroke-width="2" stroke-miterlimit="10" stroke-linecap="round" stroke-linejoin="round"/>
<path d="M324.526 59.4522C324.403 59.945 324.403 60.4379 324.403 60.9308C324.403 61.4236 324.588 62.0397 325.018 62.163C325.756 62.4094 326.248 61.4237 326.371 60.6843C326.494 60.0683 326.556 59.3906 326.31 58.8361C326.064 58.2816 325.326 57.8503 324.772 58.1584C324.28 58.4048 324.157 59.0209 324.096 59.5138C323.911 60.8692 323.911 62.5326 325.018 63.3951C325.203 63.5183 325.449 63.6416 325.633 63.58C325.879 63.5183 326.002 63.2103 326.125 62.9639C326.433 62.1013 326.556 61.1156 326.556 60.1915C326.556 59.6986 326.494 59.2673 326.248 58.8361C326.002 58.4048 325.449 58.22 325.018 58.3432C324.588 58.4664 324.403 59.2057 324.772 59.4522" fill="#1B1733"/>
<path d="M324.526 59.4522C324.403 59.945 324.403 60.4379 324.403 60.9308C324.403 61.4236 324.588 62.0397 325.018 62.163C325.756 62.4094 326.248 61.4237 326.371 60.6843C326.494 60.0683 326.556 59.3906 326.31 58.8361C326.064 58.2816 325.326 57.8503 324.772 58.1584C324.28 58.4048 324.157 59.0209 324.096 59.5138C323.911 60.8692 323.911 62.5326 325.018 63.3951C325.203 63.5183 325.449 63.6416 325.633 63.58C325.879 63.5183 326.002 63.2103 326.125 62.9639C326.433 62.1013 326.556 61.1156 326.556 60.1915C326.556 59.6986 326.494 59.2673 326.248 58.8361C326.002 58.4048 325.449 58.22 325.018 58.3432C324.588 58.4664 324.403 59.2057 324.772 59.4522" stroke="#1B1733" stroke-width="2" stroke-miterlimit="10" stroke-linecap="round" stroke-linejoin="round"/>
<path d="M343.218 60.6845C343.095 61.547 342.972 62.4095 343.28 63.2104C343.587 64.0113 344.448 64.689 345.309 64.381C346.416 64.0113 346.478 62.4711 346.355 61.3006C346.232 60.5613 346.109 59.7603 345.494 59.3907C344.633 58.8978 343.464 59.6371 343.218 60.5612C342.972 61.4854 343.218 62.5327 343.526 63.4569C343.649 63.7649 343.772 64.1345 344.018 64.381C344.756 64.9971 345.924 64.1345 345.924 63.2104C345.986 62.2863 345.371 61.4854 344.756 60.7461C344.571 60.5612 344.387 60.3148 344.141 60.3148C343.71 60.3148 343.526 60.9309 343.587 61.3622C343.649 62.4095 343.833 63.4568 344.141 64.4426" fill="#1B1733"/>
<path d="M343.218 60.6845C343.095 61.547 342.972 62.4095 343.28 63.2104C343.587 64.0113 344.448 64.689 345.309 64.381C346.416 64.0113 346.478 62.4711 346.355 61.3006C346.232 60.5613 346.109 59.7603 345.494 59.3907C344.633 58.8978 343.464 59.6371 343.218 60.5612C342.972 61.4854 343.218 62.5327 343.526 63.4569C343.649 63.7649 343.772 64.1345 344.018 64.381C344.756 64.9971 345.924 64.1345 345.924 63.2104C345.986 62.2863 345.371 61.4854 344.756 60.7461C344.571 60.5612 344.387 60.3148 344.141 60.3148C343.71 60.3148 343.526 60.9309 343.587 61.3622C343.649 62.4095 343.833 63.4568 344.141 64.4426" stroke="#1B1733" stroke-width="2" stroke-miterlimit="10" stroke-linecap="round" stroke-linejoin="round"/>
<path d="M328.524 52.5517C325.264 50.765 322.128 52.3052 321.206 54.2151" stroke="#1B1733" stroke-width="2" stroke-miterlimit="10" stroke-linecap="round" stroke-linejoin="round"/>
<path d="M341.805 50.6423C344.511 45.7136 348.877 48.9172 351.522 51.6896" stroke="#1B1733" stroke-width="2" stroke-miterlimit="10" stroke-linecap="round" stroke-linejoin="round"/>
<path d="M380.125 85.2659C380.125 85.2659 374.344 90.2562 371.454 95.5545C368.071 101.715 367.641 104.611 370.962 106.09C375.697 108.246 378.464 108.924 380.862 105.227C383.999 100.36 387.934 95.2465 390.825 93.0902C393.715 90.8723 396.974 90.2562 396.974 90.2562C396.974 90.2562 394.023 88.3463 388.611 86.8061C382.83 85.0811 380.125 85.2659 380.125 85.2659Z" fill="#1B2647"/>
<path d="M376.294 97.887C374.649 97.4646 373.008 98.3245 372.629 99.8077C372.249 101.291 373.275 102.836 374.92 103.258C376.565 103.681 378.206 102.821 378.586 101.337C378.965 99.8543 377.939 98.3094 376.294 97.887Z" fill="#2983C5"/>
<path d="M287.508 146.751C286.525 145.704 285.602 144.656 284.618 143.548C284.372 143.301 284.126 142.87 284.372 142.562C284.495 142.439 284.68 142.377 284.864 142.377C294.457 141.022 304.297 139.42 313.706 141.638C305.65 144.225 296.487 143.239 288.615 146.258L287.508 146.751Z" fill="#237DBD"/>
<path d="M297.533 123.155C303.252 133.937 309.156 144.595 315.305 155.069C324.099 144.41 334.246 135.354 344.947 126.667C344.885 122.108 344.885 119.829 345.008 115.516C332.032 114.838 318.995 114.222 306.02 113.545C302.268 117.118 300.608 119.089 297.533 123.155Z" fill="#253B6D"/>
<path d="M319.855 129.563C317.026 129.317 314.013 131.534 313.336 134.553C312.66 137.572 314.505 140.283 317.272 140.529C320.039 140.776 322.745 138.496 323.545 135.477C324.344 132.459 322.684 129.809 319.855 129.563Z" fill="#3CB8EB"/>
<path d="M327.85 141.638C330.002 139.543 331.109 138.496 333.507 136.401C333.2 129.193 333.138 122.231 333.446 115.023C333.815 111.511 331.908 109.417 328.465 109.294C325.021 109.232 320.655 111.019 317.764 114.161C312.107 120.075 307.249 126.729 303.251 133.814C304.543 136.155 305.219 137.387 306.511 139.728C311.184 131.226 316.289 123.772 322.438 116.255C323.422 115.146 324.59 114.469 325.574 114.53C326.558 114.592 327.05 115.27 326.927 116.563C326.497 124.942 326.927 133.321 327.85 141.638Z" fill="#3CB8EB"/>
<path d="M258.052 154.76C258.421 153.59 258.79 152.358 259.159 151.187C259.282 150.756 259.405 150.325 259.712 150.017C260.02 149.709 260.512 149.585 260.881 149.832C261.127 150.017 261.25 150.386 261.311 150.694C261.619 151.865 261.988 153.035 262.418 154.144C262.726 154.884 263.341 155.685 264.079 155.5C264.448 153.713 264.386 151.865 264.017 150.078C263.956 149.709 263.833 149.277 263.894 148.908C263.956 148.538 264.263 148.107 264.632 148.107C265.124 148.045 265.432 148.476 265.678 148.908C266.293 149.832 266.846 150.817 267.276 151.803" stroke="#1B1733" stroke-width="2" stroke-miterlimit="10" stroke-linecap="round" stroke-linejoin="round"/>
<path d="M426.735 177.063C425.505 178.172 420.339 180.636 422.799 181.745C424.583 182.546 429.441 179.219 430.486 181.622C431.347 183.716 422.922 183.347 423.045 186.366C423.107 188.029 427.35 187.29 429.256 187.166" stroke="#1B1733" stroke-width="2" stroke-miterlimit="10" stroke-linecap="round" stroke-linejoin="round"/>
<path d="M396.662 138.619C396.662 138.619 395.493 152.049 403.119 164.556C410.129 176.015 421.752 178.664 421.076 190C420.83 194.436 418.124 201.644 418.37 200.843" stroke="#1B1733" stroke-width="2" stroke-miterlimit="10" stroke-linecap="round" stroke-linejoin="round"/>
<path d="M388.918 130.548C393.654 138.742 402.448 141.514 402.448 141.514" stroke="#1B1733" stroke-width="2" stroke-miterlimit="10" stroke-linecap="round" stroke-linejoin="round"/>
<path d="M438.975 205.341C431.841 204.91 423.478 203.246 416.959 201.09" stroke="#1B1733" stroke-width="2" stroke-miterlimit="10" stroke-linecap="round" stroke-linejoin="round"/>
<path d="M329.757 145.519C334.062 146.567 338.305 148.045 342.364 149.832C346.545 151.68 350.604 153.898 354.909 155.377C359.275 156.794 364.072 157.41 368.376 155.931C374.341 153.836 378.339 148.23 381.844 142.993" stroke="#1B1733" stroke-width="2" stroke-miterlimit="10" stroke-linecap="round" stroke-linejoin="round"/>
<path d="M372.621 377.783C373.482 377.475 376.802 376.305 379.324 374.087C383.875 370.144 388.856 363.983 393.775 362.936C396.85 362.258 400.232 364.291 403.43 364.969C402.815 362.751 401.954 360.41 400.847 358.315C397.404 351.785 390.762 343.529 390.762 343.529C390.762 343.529 389.901 339.648 389.04 333.98C388.179 328.312 386.457 326.156 386.457 326.156C386.457 326.156 393.283 317.777 389.348 296.091C385.473 274.343 379.385 256.168 377.663 248.775C375.942 241.382 374.65 238.363 369.853 237.439C365.057 236.515 355.586 237.07 346.67 246.865C341.258 252.841 339.352 258.386 335.477 264.424C331.603 270.523 332.587 280.935 338.983 295.598C354.603 331.392 356.201 314.573 362.166 335.766C364.872 345.377 372.682 348.027 371.452 355.358C369.669 366.139 372.375 376.859 372.621 377.783Z" fill="#378DCC"/>
<path d="M237.328 174.29C238.005 172.627 240.28 167.144 241.203 165.542C244.585 159.504 246.922 155.192 250.55 150.633" stroke="#1B1733" stroke-width="2" stroke-miterlimit="10" stroke-linecap="round" stroke-linejoin="round"/>
<path d="M326.682 402.611C325.452 392.076 331.664 373.532 332.156 370.513C320.164 371.499 308.849 363.675 299.501 365.092C300.854 371.129 303.068 378.523 305.774 385.916C311.247 401.01 312.661 407.91 312.907 411.298C313.645 421.525 300.854 424.175 290.707 428.056C280.499 431.937 278.654 436.989 282.098 436.989C296.426 436.989 328.65 436.989 328.65 436.989C328.65 436.989 337.875 438.653 332.094 420.478C329.696 413.208 327.543 409.881 326.682 402.611Z" fill="#253B6D"/>
<path d="M416.281 432.8C408.84 426.269 405.581 418.876 405.581 418.876C405.581 418.876 404.843 413.639 405.273 396.389C405.458 388.257 405.089 373.409 405.089 373.409C405.089 373.409 405.028 369.528 403.736 365.03C400.415 364.414 396.972 362.258 393.774 362.935C388.916 363.983 383.873 370.144 379.322 374.087C376.309 376.736 372.373 377.906 372.373 377.906C372.373 377.906 384.857 391.768 389.223 402.242C393.589 412.654 393.466 419.677 392.605 422.449C389.1 433.169 392.175 435.942 392.175 435.942C392.175 435.942 398.755 438.468 401.338 442.411C403.921 446.354 410.685 445.984 416.466 445.984C426.428 445.984 427.842 446.354 427.842 443.52C427.842 440.87 422.738 438.468 416.281 432.8Z" fill="#253B6D"/>
<path d="M374.589 251.363C374.159 257.462 375.512 264.116 381.046 277.177C386.704 290.361 385.659 316.606 385.966 314.45C385.105 321.412 383.814 322.274 380.739 320.549C377.726 318.824 372.191 302.744 373.667 309.706C375.143 316.668 375.696 321.905 373.667 326.217C371.637 330.592 376.434 327.08 380.739 329.236C385.105 331.392 387.688 338.354 388.118 343.591C388.549 348.828 389.348 348.396 395.006 354.865C397.65 357.946 400.663 361.396 402.877 364.908C403.062 364.969 403.246 364.969 403.369 365.031C402.754 362.813 401.893 360.472 400.786 358.377C397.343 351.846 390.701 343.591 390.701 343.591C390.701 343.591 389.84 339.71 388.979 334.042C388.118 328.374 386.396 326.217 386.396 326.217C386.396 326.217 393.222 317.839 389.287 296.152C385.413 274.405 379.324 256.23 377.603 248.837C376.188 242.923 375.081 239.78 372.252 238.302C374.22 243.107 374.835 247.728 374.589 251.363Z" fill="#237DBD"/>
<path d="M316.413 420.294C320.41 420.478 323.054 421.218 324.1 421.526C325.207 421.834 325.821 422.142 326.375 421.156C326.99 419.986 326.19 418.445 325.084 417.644C323.485 416.412 321.086 414.564 322.562 413.27C323.177 412.716 324.223 413.578 325.022 413.701C325.207 413.763 325.391 413.763 325.514 413.64" stroke="#1B1733" stroke-width="2" stroke-miterlimit="10" stroke-linecap="round" stroke-linejoin="round"/>
<path d="M395.926 420.355C396.725 419.801 397.586 419.246 398.57 419.184C399.554 419.123 400.661 419.739 400.722 420.725C400.784 421.649 399.8 421.834 399 422.326C398.201 422.819 395.987 424.791 395.68 426.454C395.372 428.241 400.046 424.729 403.305 424.729" stroke="#1B1733" stroke-width="2" stroke-miterlimit="10" stroke-linecap="round" stroke-linejoin="round"/>
</svg>
